<?plantuml 1.2026.0?><svg xmlns="http://www.w3.org/2000/svg" xmlns:xlink="http://www.w3.org/1999/xlink" contentStyleType="text/css" data-diagram-type="ACTIVITY" height="983px" preserveAspectRatio="none" style="width:868px;height:983px;background:#FFFFFF;" version="1.1" viewBox="0 0 868 983" width="868px" zoomAndPan="magnify"><title>Photannie &#8212; BPMN (Admin): Login + List bookings by date</title><defs/><g><g class="title" data-source-line="1"><text fill="#000000" font-family="sans-serif" font-size="14" font-weight="bold" lengthAdjust="spacing" textLength="463.5586" x="201.113" y="32.9951">Photannie &#8212; BPMN (Admin): Login + List bookings by date</text></g><rect fill="none" height="20.9531" style="stroke:none;stroke-width:1;" width="835.7847" x="15" y="50.042"/><ellipse cx="211.4561" cy="85.9951" fill="#222222" rx="10" ry="10" style="stroke:#222222;stroke-width:1;"/><rect fill="#F1F1F1" height="33.9688" rx="12.5" ry="12.5" style="stroke:#181818;stroke-width:0.5;" width="97.5078" x="162.7021" y="115.9951"/><text fill="#000000" font-family="sans-serif" font-size="12" lengthAdjust="spacing" textLength="77.5078" x="172.7021" y="137.1338">Open /admin</text><rect fill="#F1F1F1" height="33.9688" rx="12.5" ry="12.5" style="stroke:#181818;stroke-width:0.5;" width="113.2051" x="154.8535" y="169.9639"/><text fill="#000000" font-family="sans-serif" font-size="12" lengthAdjust="spacing" textLength="93.2051" x="164.8535" y="191.1025">Enter password</text><rect fill="#F1F1F1" height="33.9688" rx="12.5" ry="12.5" style="stroke:#181818;stroke-width:0.5;" width="96.0313" x="163.4404" y="223.9326"/><text fill="#000000" font-family="sans-serif" font-size="12" lengthAdjust="spacing" textLength="76.0313" x="173.4404" y="245.0713">Click "Login"</text><rect fill="#F1F1F1" height="33.9688" rx="12.5" ry="12.5" style="stroke:#181818;stroke-width:0.5;" width="139.4199" x="21" y="497.7764"/><text fill="#000000" font-family="sans-serif" font-size="12" lengthAdjust="spacing" textLength="119.4199" x="31" y="518.915">Login success (204)</text><rect fill="#F1F1F1" height="33.9688" rx="12.5" ry="12.5" style="stroke:#181818;stroke-width:0.5;" width="171.6641" x="246.3701" y="375.8701"/><text fill="#000000" font-family="sans-serif" font-size="12" lengthAdjust="spacing" textLength="151.6641" x="256.3701" y="397.0088">Show unauthorized (401)</text><ellipse cx="332.2021" cy="440.8389" fill="none" rx="11" ry="11" style="stroke:#222222;stroke-width:1;"/><ellipse cx="332.2021" cy="440.8389" fill="#222222" rx="6" ry="6" style="stroke:#222222;stroke-width:1;"/><rect fill="#F1F1F1" height="33.9688" rx="12.5" ry="12.5" style="stroke:#181818;stroke-width:0.5;" width="95.1758" x="163.8682" y="551.7451"/><text fill="#000000" font-family="sans-serif" font-size="12" lengthAdjust="spacing" textLength="75.1758" x="173.8682" y="572.8838">Choose date</text><rect fill="#F1F1F1" height="33.9688" rx="12.5" ry="12.5" style="stroke:#181818;stroke-width:0.5;" width="148.5957" x="137.1582" y="605.7139"/><text fill="#000000" font-family="sans-serif" font-size="12" lengthAdjust="spacing" textLength="128.5957" x="147.1582" y="626.8525">Request bookings list</text><rect fill="#F1F1F1" height="47.9375" rx="12.5" ry="12.5" style="stroke:#181818;stroke-width:0.5;" width="84.6992" x="44.5854" y="865.5889"/><text fill="#000000" font-family="sans-serif" font-size="12" lengthAdjust="spacing" textLength="64.6992" x="54.5854" y="886.7275">Render list</text><text fill="#000000" font-family="sans-serif" font-size="12" lengthAdjust="spacing" textLength="3.8145" x="54.5854" y="900.6963">&#160;</text><ellipse cx="86.9351" cy="944.5264" fill="none" rx="11" ry="11" style="stroke:#222222;stroke-width:1;"/><ellipse cx="86.9351" cy="944.5264" fill="#222222" rx="6" ry="6" style="stroke:#222222;stroke-width:1;"/><rect fill="#F1F1F1" height="33.9688" rx="12.5" ry="12.5" style="stroke:#181818;stroke-width:0.5;" width="171.6641" x="250.145" y="757.6514"/><text fill="#000000" font-family="sans-serif" font-size="12" lengthAdjust="spacing" textLength="151.6641" x="260.145" y="778.79">Show unauthorized (401)</text><ellipse cx="335.9771" cy="822.6201" fill="none" rx="11" ry="11" style="stroke:#222222;stroke-width:1;"/><ellipse cx="335.9771" cy="822.6201" fill="#222222" rx="6" ry="6" style="stroke:#222222;stroke-width:1;"/><line style="stroke:#000000;stroke-width:1.5;" x1="15" x2="15" y1="50.042" y2="971.5264"/><rect fill="#F1F1F1" height="33.9688" rx="12.5" ry="12.5" style="stroke:#181818;stroke-width:0.5;" width="201.1719" x="598.9541" y="277.9014"/><text fill="#000000" font-family="sans-serif" font-size="12" lengthAdjust="spacing" textLength="181.1719" x="608.9541" y="299.04">POST /api/admin/session/login</text><polygon fill="#F1F1F1" points="660.9031,331.8701,738.177,331.8701,750.177,343.8701,738.177,355.8701,660.9031,355.8701,648.9031,343.8701,660.9031,331.8701" style="stroke:#181818;stroke-width:0.5;"/><text fill="#000000" font-family="sans-serif" font-size="11" lengthAdjust="spacing" textLength="77.2739" x="660.9031" y="347.6782">Password OK?</text><text fill="#000000" font-family="sans-serif" font-size="11" lengthAdjust="spacing" textLength="19.0083" x="629.8948" y="341.2759">yes</text><text fill="#000000" font-family="sans-serif" font-size="11" lengthAdjust="spacing" textLength="13.7017" x="750.177" y="341.2759">no</text><rect fill="#F1F1F1" height="33.9688" rx="12.5" ry="12.5" style="stroke:#181818;stroke-width:0.5;" width="150.1719" x="503.708" y="375.8701"/><text fill="#000000" font-family="sans-serif" font-size="12" lengthAdjust="spacing" textLength="130.1719" x="513.708" y="397.0088">Create server session</text><rect fill="#F1F1F1" height="47.9375" rx="12.5" ry="12.5" style="stroke:#181818;stroke-width:0.5;" width="271.3203" x="443.1338" y="429.8389"/><text fill="#000000" font-family="sans-serif" font-size="12" lengthAdjust="spacing" textLength="179.5488" x="453.1338" y="450.9775">Set-Cookie photannie_session</text><text fill="#000000" font-family="sans-serif" font-size="12" lengthAdjust="spacing" textLength="251.3203" x="453.1338" y="464.9463">(session-only, HttpOnly, SameSite=Strict)</text><rect fill="#F1F1F1" height="33.9688" rx="12.5" ry="12.5" style="stroke:#181818;stroke-width:0.5;" width="290.7676" x="554.1563" y="659.6826"/><text fill="#000000" font-family="sans-serif" font-size="12" lengthAdjust="spacing" textLength="270.7676" x="564.1563" y="680.8213">GET /api/admin/bookings?date=YYYY-MM-DD</text><polygon fill="#F1F1F1" points="660.7151,713.6514,738.365,713.6514,750.365,725.6514,738.365,737.6514,660.7151,737.6514,648.7151,725.6514,660.7151,713.6514" style="stroke:#181818;stroke-width:0.5;"/><text fill="#000000" font-family="sans-serif" font-size="11" lengthAdjust="spacing" textLength="77.6499" x="660.7151" y="729.4595">Session valid?</text><text fill="#000000" font-family="sans-serif" font-size="11" lengthAdjust="spacing" textLength="19.0083" x="629.7068" y="723.0571">yes</text><text fill="#000000" font-family="sans-serif" font-size="11" lengthAdjust="spacing" textLength="13.7017" x="750.365" y="723.0571">no</text><rect fill="#F1F1F1" height="33.9688" rx="12.5" ry="12.5" style="stroke:#181818;stroke-width:0.5;" width="158.0586" x="495.9897" y="757.6514"/><text fill="#000000" font-family="sans-serif" font-size="12" lengthAdjust="spacing" textLength="138.0586" x="505.9897" y="778.79">Load bookings for date</text><rect fill="#F1F1F1" height="33.9688" rx="12.5" ry="12.5" style="stroke:#181818;stroke-width:0.5;" width="286.4199" x="431.8091" y="811.6201"/><text fill="#000000" font-family="sans-serif" font-size="12" lengthAdjust="spacing" textLength="266.4199" x="441.8091" y="832.7588">Return 200 AdminBookingsByDateResponse</text><line style="stroke:#000000;stroke-width:1.5;" x1="425.8091" x2="425.8091" y1="50.042" y2="971.5264"/><line style="stroke:#000000;stroke-width:1.5;" x1="848.9238" x2="848.9238" y1="50.042" y2="971.5264"/><line style="stroke:#181818;stroke-width:1;" x1="211.4561" x2="211.4561" y1="95.9951" y2="115.9951"/><polygon fill="#181818" points="207.4561,105.9951,211.4561,115.9951,215.4561,105.9951,211.4561,109.9951" style="stroke:#181818;stroke-width:1;"/><line style="stroke:#181818;stroke-width:1;" x1="211.4561" x2="211.4561" y1="149.9639" y2="169.9639"/><polygon fill="#181818" points="207.4561,159.9639,211.4561,169.9639,215.4561,159.9639,211.4561,163.9639" style="stroke:#181818;stroke-width:1;"/><line style="stroke:#181818;stroke-width:1;" x1="211.4561" x2="211.4561" y1="203.9326" y2="223.9326"/><polygon fill="#181818" points="207.4561,213.9326,211.4561,223.9326,215.4561,213.9326,211.4561,217.9326" style="stroke:#181818;stroke-width:1;"/><line style="stroke:#181818;stroke-width:1;" x1="332.2021" x2="332.2021" y1="409.8389" y2="429.8389"/><polygon fill="#181818" points="328.2021,419.8389,332.2021,429.8389,336.2021,419.8389,332.2021,423.8389" style="stroke:#181818;stroke-width:1;"/><line style="stroke:#181818;stroke-width:1;" x1="211.4561" x2="211.4561" y1="585.7139" y2="605.7139"/><polygon fill="#181818" points="207.4561,595.7139,211.4561,605.7139,215.4561,595.7139,211.4561,599.7139" style="stroke:#181818;stroke-width:1;"/><line style="stroke:#181818;stroke-width:1;" x1="86.9351" x2="86.9351" y1="913.5264" y2="933.5264"/><polygon fill="#181818" points="82.9351,923.5264,86.9351,933.5264,90.9351,923.5264,86.9351,927.5264" style="stroke:#181818;stroke-width:1;"/><line style="stroke:#181818;stroke-width:1;" x1="335.9771" x2="335.9771" y1="791.6201" y2="811.6201"/><polygon fill="#181818" points="331.9771,801.6201,335.9771,811.6201,339.9771,801.6201,335.9771,805.6201" style="stroke:#181818;stroke-width:1;"/><line style="stroke:#181818;stroke-width:1;" x1="578.7939" x2="578.7939" y1="409.8389" y2="429.8389"/><polygon fill="#181818" points="574.7939,419.8389,578.7939,429.8389,582.7939,419.8389,578.7939,423.8389" style="stroke:#181818;stroke-width:1;"/><line style="stroke:#181818;stroke-width:1;" x1="648.9031" x2="578.7939" y1="343.8701" y2="343.8701"/><line style="stroke:#181818;stroke-width:1;" x1="578.7939" x2="578.7939" y1="343.8701" y2="375.8701"/><polygon fill="#181818" points="574.7939,365.8701,578.7939,375.8701,582.7939,365.8701,578.7939,369.8701" style="stroke:#181818;stroke-width:1;"/><line style="stroke:#181818;stroke-width:1;" x1="699.54" x2="699.54" y1="311.8701" y2="331.8701"/><polygon fill="#181818" points="695.54,321.8701,699.54,331.8701,703.54,321.8701,699.54,325.8701" style="stroke:#181818;stroke-width:1;"/><line style="stroke:#181818;stroke-width:1;" x1="575.019" x2="575.019" y1="791.6201" y2="811.6201"/><polygon fill="#181818" points="571.019,801.6201,575.019,811.6201,579.019,801.6201,575.019,805.6201" style="stroke:#181818;stroke-width:1;"/><line style="stroke:#181818;stroke-width:1;" x1="648.7151" x2="575.019" y1="725.6514" y2="725.6514"/><line style="stroke:#181818;stroke-width:1;" x1="575.019" x2="575.019" y1="725.6514" y2="757.6514"/><polygon fill="#181818" points="571.019,747.6514,575.019,757.6514,579.019,747.6514,575.019,751.6514" style="stroke:#181818;stroke-width:1;"/><line style="stroke:#181818;stroke-width:1;" x1="699.54" x2="699.54" y1="693.6514" y2="713.6514"/><polygon fill="#181818" points="695.54,703.6514,699.54,713.6514,703.54,703.6514,699.54,707.6514" style="stroke:#181818;stroke-width:1;"/><line style="stroke:#181818;stroke-width:1;" x1="211.4561" x2="211.4561" y1="257.9014" y2="262.9014"/><line style="stroke:#181818;stroke-width:1;" x1="211.4561" x2="699.54" y1="262.9014" y2="262.9014"/><line style="stroke:#181818;stroke-width:1;" x1="699.54" x2="699.54" y1="262.9014" y2="277.9014"/><polygon fill="#181818" points="695.54,267.9014,699.54,277.9014,703.54,267.9014,699.54,271.9014" style="stroke:#181818;stroke-width:1;"/><line style="stroke:#181818;stroke-width:1;" x1="578.7939" x2="578.7939" y1="477.7764" y2="482.7764"/><line style="stroke:#181818;stroke-width:1;" x1="578.7939" x2="90.71" y1="482.7764" y2="482.7764"/><line style="stroke:#181818;stroke-width:1;" x1="90.71" x2="90.71" y1="482.7764" y2="497.7764"/><polygon fill="#181818" points="86.71,487.7764,90.71,497.7764,94.71,487.7764,90.71,491.7764" style="stroke:#181818;stroke-width:1;"/><line style="stroke:#181818;stroke-width:1;" x1="750.177" x2="762.177" y1="343.8701" y2="343.8701"/><line style="stroke:#181818;stroke-width:1;" x1="762.177" x2="762.177" y1="343.8701" y2="361.8701"/><line style="stroke:#181818;stroke-width:1;" x1="762.177" x2="332.2021" y1="361.8701" y2="361.8701"/><line style="stroke:#181818;stroke-width:1;" x1="332.2021" x2="332.2021" y1="361.8701" y2="375.8701"/><polygon fill="#181818" points="328.2021,365.8701,332.2021,375.8701,336.2021,365.8701,332.2021,369.8701" style="stroke:#181818;stroke-width:1;"/><line style="stroke:#181818;stroke-width:1;" x1="90.71" x2="90.71" y1="531.7451" y2="536.7451"/><line style="stroke:#181818;stroke-width:1;" x1="90.71" x2="211.4561" y1="536.7451" y2="536.7451"/><line style="stroke:#181818;stroke-width:1;" x1="211.4561" x2="211.4561" y1="536.7451" y2="551.7451"/><polygon fill="#181818" points="207.4561,541.7451,211.4561,551.7451,215.4561,541.7451,211.4561,545.7451" style="stroke:#181818;stroke-width:1;"/><line style="stroke:#181818;stroke-width:1;" x1="211.4561" x2="211.4561" y1="639.6826" y2="644.6826"/><line style="stroke:#181818;stroke-width:1;" x1="211.4561" x2="699.54" y1="644.6826" y2="644.6826"/><line style="stroke:#181818;stroke-width:1;" x1="699.54" x2="699.54" y1="644.6826" y2="659.6826"/><polygon fill="#181818" points="695.54,649.6826,699.54,659.6826,703.54,649.6826,699.54,653.6826" style="stroke:#181818;stroke-width:1;"/><line style="stroke:#181818;stroke-width:1;" x1="575.019" x2="575.019" y1="845.5889" y2="850.5889"/><line style="stroke:#181818;stroke-width:1;" x1="575.019" x2="86.9351" y1="850.5889" y2="850.5889"/><line style="stroke:#181818;stroke-width:1;" x1="86.9351" x2="86.9351" y1="850.5889" y2="865.5889"/><polygon fill="#181818" points="82.9351,855.5889,86.9351,865.5889,90.9351,855.5889,86.9351,859.5889" style="stroke:#181818;stroke-width:1;"/><line style="stroke:#181818;stroke-width:1;" x1="750.365" x2="762.365" y1="725.6514" y2="725.6514"/><line style="stroke:#181818;stroke-width:1;" x1="762.365" x2="762.365" y1="725.6514" y2="743.6514"/><line style="stroke:#181818;stroke-width:1;" x1="762.365" x2="335.9771" y1="743.6514" y2="743.6514"/><line style="stroke:#181818;stroke-width:1;" x1="335.9771" x2="335.9771" y1="743.6514" y2="757.6514"/><polygon fill="#181818" points="331.9771,747.6514,335.9771,757.6514,339.9771,747.6514,335.9771,751.6514" style="stroke:#181818;stroke-width:1;"/><text fill="#000000" font-family="sans-serif" font-size="18" lengthAdjust="spacing" textLength="57.6826" x="191.5632" y="66.75">Admin</text><text fill="#000000" font-family="sans-serif" font-size="18" lengthAdjust="spacing" textLength="125.8506" x="574.4412" y="66.75">Backend (API)</text><?plantuml-src fL71JkCm4BtxAqQS4YrL2-AK2Y6QeWLjIwE6oqf8ApUPDbPJJx0Tgg8U-0Y-a2zXdAGgi7jRdspFcpVllN7AbGX9GKvghH3UNzzWb4pl8RZEDqg74KnefJJyW8co3XP4QwLN5XOxoAL38Io_Asda1cmXSzfo5PQojFYfif3PUcMerdbC9HdO5igtxfiHUs6TD4v4imerzAN_6uheHZiqK4bhjsHo_eXBbQtXf95pCkJk4REYpbbfSXVkHPJCqWVkhrJBqRTehIBTBtt7KAWb14b71xDVLo6uWWS6ExIX08XYWsm8B9fd7jmr3tqbHTUBlN64wX3Kdmxmg8FkrYDTxaxXrhbgrjnIkS6KZLwcpgZCXPxhO9bPsrnjdMNS3y7vu88HoC51e2dyYaqBsaAjPUqACke5sVJ5uAnXj8ugmJ6evJ7GA2w8cCXlY9ERurEDdvTNyYh_bU3Fcoy17l1NdkVoDv_UTDeRZziiqzOsFCjIvN-bEI6P7mSkUUcj62xDqTL6m_bW08tUKOSQxSOCcQEjI5lybjQSTV9QlF97VVJz7t5z0000?></g></svg>