<?plantuml 1.2026.0?><svg xmlns="http://www.w3.org/2000/svg" xmlns:xlink="http://www.w3.org/1999/xlink" contentStyleType="text/css" data-diagram-type="SEQUENCE" height="894px" preserveAspectRatio="none" style="width:817px;height:894px;background:#FFFFFF;" version="1.1" viewBox="0 0 817 894" width="817px" zoomAndPan="magnify"><title>Photannie &#8212; Sequence (Admin): Login + List bookings by date</title><defs/><g><text fill="#000000" font-family="sans-serif" font-size="14" font-weight="bold" lengthAdjust="spacing" textLength="493.8008" x="162.7285" y="27.9951">Photannie &#8212; Sequence (Admin): Login + List bookings by date</text><rect fill="none" height="206.7344" style="stroke:#000000;stroke-width:1.5;" width="800.2578" x="10" y="235.9922"/><rect fill="none" height="237" style="stroke:#000000;stroke-width:1.5;" width="800.2578" x="10" y="559.2578"/><g class="participant-lifeline" data-entity-uid="part1" data-qualified-name="Admin" id="part1-lifeline"><g><title>Admin</title><rect fill="#000000" fill-opacity="0.00000" height="694.6641" width="8" x="41.4321" y="118.5938"/><line style="stroke:#181818;stroke-width:0.5;stroke-dasharray:5,5;" x1="45" x2="45" y1="118.5938" y2="813.2578"/></g></g><g class="participant-lifeline" data-entity-uid="part2" data-qualified-name="AFE" id="part2-lifeline"><g><title>Frontend .Admin UI.</title><rect fill="#000000" fill-opacity="0.00000" height="694.6641" width="8" x="183.9429" y="118.5938"/><line style="stroke:#181818;stroke-width:0.5;stroke-dasharray:5,5;" x1="187.856" x2="187.856" y1="118.5938" y2="813.2578"/></g></g><g class="participant-lifeline" data-entity-uid="part3" data-qualified-name="API" id="part3-lifeline"><g><title>API</title><rect fill="#000000" fill-opacity="0.00000" height="694.6641" width="8" x="501.2744" y="118.5938"/><line style="stroke:#181818;stroke-width:0.5;stroke-dasharray:5,5;" x1="505.2002" x2="505.2002" y1="118.5938" y2="813.2578"/></g></g><g class="participant-lifeline" data-entity-uid="part4" data-qualified-name="DB" id="part4-lifeline"><g><title>DB</title><rect fill="#000000" fill-opacity="0.00000" height="694.6641" width="8" x="778.2578" y="118.5938"/><line style="stroke:#181818;stroke-width:0.5;stroke-dasharray:5,5;" x1="782.2578" x2="782.2578" y1="118.5938" y2="813.2578"/></g></g><g class="participant participant-head" data-entity-uid="part1" data-qualified-name="Admin" id="part1-head"><text fill="#000000" font-family="sans-serif" font-size="14" lengthAdjust="spacing" textLength="44.8643" x="20" y="115.292">Admin</text><ellipse cx="45.4321" cy="50.7969" fill="#E2E2F0" rx="8" ry="8" style="stroke:#181818;stroke-width:0.5;"/><path d="M45.4321,58.7969 L45.4321,85.7969 M32.4321,66.7969 L58.4321,66.7969 M45.4321,85.7969 L32.4321,100.7969 M45.4321,85.7969 L58.4321,100.7969" fill="none" style="stroke:#181818;stroke-width:0.5;"/></g><g class="participant participant-tail" data-entity-uid="part1" data-qualified-name="Admin" id="part1-tail"><text fill="#000000" font-family="sans-serif" font-size="14" lengthAdjust="spacing" textLength="44.8643" x="20" y="825.2529">Admin</text><ellipse cx="45.4321" cy="837.0547" fill="#E2E2F0" rx="8" ry="8" style="stroke:#181818;stroke-width:0.5;"/><path d="M45.4321,845.0547 L45.4321,872.0547 M32.4321,853.0547 L58.4321,853.0547 M45.4321,872.0547 L32.4321,887.0547 M45.4321,872.0547 L58.4321,887.0547" fill="none" style="stroke:#181818;stroke-width:0.5;"/></g><g class="participant participant-head" data-entity-uid="part2" data-qualified-name="AFE" id="part2-head"><rect fill="#E2E2F0" height="30.2969" rx="2.5" ry="2.5" style="stroke:#181818;stroke-width:0.5;" width="156.1738" x="109.856" y="87.2969"/><text fill="#000000" font-family="sans-serif" font-size="14" lengthAdjust="spacing" textLength="142.1738" x="116.856" y="107.292">Frontend (Admin UI)</text></g><g class="participant participant-tail" data-entity-uid="part2" data-qualified-name="AFE" id="part2-tail"><rect fill="#E2E2F0" height="30.2969" rx="2.5" ry="2.5" style="stroke:#181818;stroke-width:0.5;" width="156.1738" x="109.856" y="812.2578"/><text fill="#000000" font-family="sans-serif" font-size="14" lengthAdjust="spacing" textLength="142.1738" x="116.856" y="832.2529">Frontend (Admin UI)</text></g><g class="participant participant-head" data-entity-uid="part3" data-qualified-name="API" id="part3-head"><rect fill="#E2E2F0" height="30.2969" rx="2.5" ry="2.5" style="stroke:#181818;stroke-width:0.5;" width="36.1484" x="487.2002" y="87.2969"/><text fill="#000000" font-family="sans-serif" font-size="14" lengthAdjust="spacing" textLength="22.1484" x="494.2002" y="107.292">API</text></g><g class="participant participant-tail" data-entity-uid="part3" data-qualified-name="API" id="part3-tail"><rect fill="#E2E2F0" height="30.2969" rx="2.5" ry="2.5" style="stroke:#181818;stroke-width:0.5;" width="36.1484" x="487.2002" y="812.2578"/><text fill="#000000" font-family="sans-serif" font-size="14" lengthAdjust="spacing" textLength="22.1484" x="494.2002" y="832.2529">API</text></g><g class="participant participant-head" data-entity-uid="part4" data-qualified-name="DB" id="part4-head"><text fill="#000000" font-family="sans-serif" font-size="14" lengthAdjust="spacing" textLength="20.3848" x="769.0654" y="115.292">DB</text><path d="M764.2578,66.2969 C764.2578,56.2969 782.2578,56.2969 782.2578,56.2969 C782.2578,56.2969 800.2578,56.2969 800.2578,66.2969 L800.2578,92.2969 C800.2578,102.2969 782.2578,102.2969 782.2578,102.2969 C782.2578,102.2969 764.2578,102.2969 764.2578,92.2969 L764.2578,66.2969" fill="#E2E2F0" style="stroke:#181818;stroke-width:0.5;"/><path d="M764.2578,66.2969 C764.2578,76.2969 782.2578,76.2969 782.2578,76.2969 C782.2578,76.2969 800.2578,76.2969 800.2578,66.2969" fill="none" style="stroke:#181818;stroke-width:0.5;"/></g><g class="participant participant-tail" data-entity-uid="part4" data-qualified-name="DB" id="part4-tail"><text fill="#000000" font-family="sans-serif" font-size="14" lengthAdjust="spacing" textLength="20.3848" x="769.0654" y="825.2529">DB</text><path d="M764.2578,838.5547 C764.2578,828.5547 782.2578,828.5547 782.2578,828.5547 C782.2578,828.5547 800.2578,828.5547 800.2578,838.5547 L800.2578,864.5547 C800.2578,874.5547 782.2578,874.5547 782.2578,874.5547 C782.2578,874.5547 764.2578,874.5547 764.2578,864.5547 L764.2578,838.5547" fill="#E2E2F0" style="stroke:#181818;stroke-width:0.5;"/><path d="M764.2578,838.5547 C764.2578,848.5547 782.2578,848.5547 782.2578,848.5547 C782.2578,848.5547 800.2578,848.5547 800.2578,838.5547" fill="none" style="stroke:#181818;stroke-width:0.5;"/></g><g class="message" data-entity-1="part1" data-entity-2="part2" id="msg1"><polygon fill="#181818" points="175.9429,145.7266,185.9429,149.7266,175.9429,153.7266,179.9429,149.7266" style="stroke:#181818;stroke-width:1;"/><line style="stroke:#181818;stroke-width:1;" x1="45.4321" x2="181.9429" y1="149.7266" y2="149.7266"/><text fill="#000000" font-family="sans-serif" font-size="13" lengthAdjust="spacing" textLength="100.9722" x="52.4321" y="144.6606">Enter password</text></g><g class="message" data-entity-1="part2" data-entity-2="part3" id="msg2"><polygon fill="#181818" points="493.2744,174.8594,503.2744,178.8594,493.2744,182.8594,497.2744,178.8594" style="stroke:#181818;stroke-width:1;"/><line style="stroke:#181818;stroke-width:1;" x1="187.9429" x2="499.2744" y1="178.8594" y2="178.8594"/><text fill="#000000" font-family="sans-serif" font-size="13" lengthAdjust="spacing" textLength="278.8906" x="194.9429" y="173.7935">POST /api/admin/session/login {password}</text></g><g class="message" data-entity-1="part3" data-entity-2="part3" id="msg3"><line style="stroke:#181818;stroke-width:1;" x1="505.2744" x2="547.2744" y1="207.9922" y2="207.9922"/><line style="stroke:#181818;stroke-width:1;" x1="547.2744" x2="547.2744" y1="207.9922" y2="220.9922"/><line style="stroke:#181818;stroke-width:1;" x1="506.2744" x2="547.2744" y1="220.9922" y2="220.9922"/><polygon fill="#181818" points="516.2744,216.9922,506.2744,220.9922,516.2744,224.9922,512.2744,220.9922" style="stroke:#181818;stroke-width:1;"/><text fill="#000000" font-family="sans-serif" font-size="13" lengthAdjust="spacing" textLength="262.9834" x="512.2744" y="202.9263">Compare with ADMIN_PASSWORD (.env)</text></g><path d="M10,235.9922 L74.4429,235.9922 L74.4429,243.125 L64.4429,253.125 L10,253.125 L10,235.9922" fill="#EEEEEE" style="stroke:#000000;stroke-width:1.5;"/><rect fill="none" height="206.7344" style="stroke:#000000;stroke-width:1.5;" width="800.2578" x="10" y="235.9922"/><text fill="#000000" font-family="sans-serif" font-size="13" font-weight="bold" lengthAdjust="spacing" textLength="19.4429" x="25" y="249.0591">alt</text><text fill="#000000" font-family="sans-serif" font-size="11" font-weight="bold" lengthAdjust="spacing" textLength="112.1431" x="89.4429" y="248.2026">[wrong password]</text><g class="message" data-entity-1="part3" data-entity-2="part2" id="msg4"><polygon fill="#181818" points="198.9429,270.2578,188.9429,274.2578,198.9429,278.2578,194.9429,274.2578" style="stroke:#181818;stroke-width:1;"/><line style="stroke:#181818;stroke-width:1;stroke-dasharray:2,2;" x1="192.9429" x2="504.2744" y1="274.2578" y2="274.2578"/><text fill="#000000" font-family="sans-serif" font-size="13" lengthAdjust="spacing" textLength="116.2256" x="204.9429" y="269.1919">401 Unauthorized</text></g><g class="message" data-entity-1="part2" data-entity-2="part1" id="msg5"><polygon fill="#181818" points="56.4321,299.3906,46.4321,303.3906,56.4321,307.3906,52.4321,303.3906" style="stroke:#181818;stroke-width:1;"/><line style="stroke:#181818;stroke-width:1;stroke-dasharray:2,2;" x1="50.4321" x2="186.9429" y1="303.3906" y2="303.3906"/><text fill="#000000" font-family="sans-serif" font-size="13" lengthAdjust="spacing" textLength="71.1953" x="62.4321" y="298.3247">Show error</text></g><line style="stroke:#000000;stroke-width:1;stroke-dasharray:2,2;" x1="10" x2="810.2578" y1="312.3906" y2="312.3906"/><text fill="#000000" font-family="sans-serif" font-size="11" font-weight="bold" lengthAdjust="spacing" textLength="24.9272" x="15" y="322.6011">[ok]</text><g class="message" data-entity-1="part3" data-entity-2="part4" id="msg6"><polygon fill="#181818" points="770.2578,343.3281,780.2578,347.3281,770.2578,351.3281,774.2578,347.3281" style="stroke:#181818;stroke-width:1;"/><line style="stroke:#181818;stroke-width:1;" x1="505.2744" x2="776.2578" y1="347.3281" y2="347.3281"/><text fill="#000000" font-family="sans-serif" font-size="13" lengthAdjust="spacing" textLength="187.1924" x="512.2744" y="342.2622">Create server session record</text></g><g class="message" data-entity-1="part4" data-entity-2="part3" id="msg7"><polygon fill="#181818" points="516.2744,372.4609,506.2744,376.4609,516.2744,380.4609,512.2744,376.4609" style="stroke:#181818;stroke-width:1;"/><line style="stroke:#181818;stroke-width:1;stroke-dasharray:2,2;" x1="510.2744" x2="781.2578" y1="376.4609" y2="376.4609"/><text fill="#000000" font-family="sans-serif" font-size="13" lengthAdjust="spacing" textLength="66.4854" x="522.2744" y="371.395">session_id</text></g><g class="message" data-entity-1="part3" data-entity-2="part2" id="msg8"><polygon fill="#181818" points="198.9429,401.5938,188.9429,405.5938,198.9429,409.5938,194.9429,405.5938" style="stroke:#181818;stroke-width:1;"/><line style="stroke:#181818;stroke-width:1;stroke-dasharray:2,2;" x1="192.9429" x2="504.2744" y1="405.5938" y2="405.5938"/><text fill="#000000" font-family="sans-serif" font-size="13" lengthAdjust="spacing" textLength="261.771" x="204.9429" y="400.5278">204 + Set-Cookie photannie_session=...</text></g><g class="message" data-entity-1="part2" data-entity-2="part1" id="msg9"><polygon fill="#181818" points="56.4321,430.7266,46.4321,434.7266,56.4321,438.7266,52.4321,434.7266" style="stroke:#181818;stroke-width:1;"/><line style="stroke:#181818;stroke-width:1;stroke-dasharray:2,2;" x1="50.4321" x2="186.9429" y1="434.7266" y2="434.7266"/><text fill="#000000" font-family="sans-serif" font-size="13" lengthAdjust="spacing" textLength="63.9336" x="62.4321" y="429.6606">Logged in</text></g><g class="message" data-entity-1="part1" data-entity-2="part2" id="msg10"><polygon fill="#181818" points="175.9429,466.8594,185.9429,470.8594,175.9429,474.8594,179.9429,470.8594" style="stroke:#181818;stroke-width:1;"/><line style="stroke:#181818;stroke-width:1;" x1="45.4321" x2="181.9429" y1="470.8594" y2="470.8594"/><text fill="#000000" font-family="sans-serif" font-size="13" lengthAdjust="spacing" textLength="81.4404" x="52.4321" y="465.7935">Choose date</text></g><g class="message" data-entity-1="part2" data-entity-2="part3" id="msg11"><polygon fill="#181818" points="493.2744,511.125,503.2744,515.125,493.2744,519.125,497.2744,515.125" style="stroke:#181818;stroke-width:1;"/><line style="stroke:#181818;stroke-width:1;" x1="187.9429" x2="499.2744" y1="515.125" y2="515.125"/><text fill="#000000" font-family="sans-serif" font-size="13" lengthAdjust="spacing" textLength="293.3315" x="194.9429" y="494.9263">GET /api/admin/bookings?date=YYYY-MM-DD</text><text fill="#000000" font-family="sans-serif" font-size="13" lengthAdjust="spacing" textLength="182.9966" x="194.9429" y="510.0591">(Cookie: photannie_session)</text></g><g class="message" data-entity-1="part3" data-entity-2="part4" id="msg12"><polygon fill="#181818" points="770.2578,540.2578,780.2578,544.2578,770.2578,548.2578,774.2578,544.2578" style="stroke:#181818;stroke-width:1;"/><line style="stroke:#181818;stroke-width:1;" x1="505.2744" x2="776.2578" y1="544.2578" y2="544.2578"/><text fill="#000000" font-family="sans-serif" font-size="13" lengthAdjust="spacing" textLength="172.0532" x="512.2744" y="539.1919">Validate session by cookie</text></g><path d="M10,559.2578 L74.4429,559.2578 L74.4429,566.3906 L64.4429,576.3906 L10,576.3906 L10,559.2578" fill="#EEEEEE" style="stroke:#000000;stroke-width:1.5;"/><rect fill="none" height="237" style="stroke:#000000;stroke-width:1.5;" width="800.2578" x="10" y="559.2578"/><text fill="#000000" font-family="sans-serif" font-size="13" font-weight="bold" lengthAdjust="spacing" textLength="19.4429" x="25" y="572.3247">alt</text><text fill="#000000" font-family="sans-serif" font-size="11" font-weight="bold" lengthAdjust="spacing" textLength="101.7554" x="89.4429" y="571.4683">[invalid session]</text><g class="message" data-entity-1="part3" data-entity-2="part2" id="msg13"><polygon fill="#181818" points="198.9429,593.5234,188.9429,597.5234,198.9429,601.5234,194.9429,597.5234" style="stroke:#181818;stroke-width:1;"/><line style="stroke:#181818;stroke-width:1;stroke-dasharray:2,2;" x1="192.9429" x2="504.2744" y1="597.5234" y2="597.5234"/><text fill="#000000" font-family="sans-serif" font-size="13" lengthAdjust="spacing" textLength="116.2256" x="204.9429" y="592.4575">401 Unauthorized</text></g><g class="message" data-entity-1="part2" data-entity-2="part1" id="msg14"><polygon fill="#181818" points="56.4321,622.6563,46.4321,626.6563,56.4321,630.6563,52.4321,626.6563" style="stroke:#181818;stroke-width:1;"/><line style="stroke:#181818;stroke-width:1;stroke-dasharray:2,2;" x1="50.4321" x2="186.9429" y1="626.6563" y2="626.6563"/><text fill="#000000" font-family="sans-serif" font-size="13" lengthAdjust="spacing" textLength="118.5107" x="62.4321" y="621.5903">Show login screen</text></g><line style="stroke:#000000;stroke-width:1;stroke-dasharray:2,2;" x1="10" x2="810.2578" y1="635.6563" y2="635.6563"/><text fill="#000000" font-family="sans-serif" font-size="11" font-weight="bold" lengthAdjust="spacing" textLength="24.9272" x="15" y="645.8667">[ok]</text><g class="message" data-entity-1="part3" data-entity-2="part4" id="msg15"><polygon fill="#181818" points="770.2578,681.7266,780.2578,685.7266,770.2578,689.7266,774.2578,685.7266" style="stroke:#181818;stroke-width:1;"/><line style="stroke:#181818;stroke-width:1;" x1="505.2744" x2="776.2578" y1="685.7266" y2="685.7266"/><text fill="#000000" font-family="sans-serif" font-size="13" lengthAdjust="spacing" textLength="245.9717" x="512.2744" y="665.5278">Query bookings for date (all statuses)</text><text fill="#000000" font-family="sans-serif" font-size="13" lengthAdjust="spacing" textLength="153.8608" x="512.2744" y="680.6606">(or whatever you store)</text></g><g class="message" data-entity-1="part4" data-entity-2="part3" id="msg16"><polygon fill="#181818" points="516.2744,710.8594,506.2744,714.8594,516.2744,718.8594,512.2744,714.8594" style="stroke:#181818;stroke-width:1;"/><line style="stroke:#181818;stroke-width:1;stroke-dasharray:2,2;" x1="510.2744" x2="781.2578" y1="714.8594" y2="714.8594"/><text fill="#000000" font-family="sans-serif" font-size="13" lengthAdjust="spacing" textLength="46.2871" x="522.2744" y="709.7935">items[]</text></g><g class="message" data-entity-1="part3" data-entity-2="part2" id="msg17"><polygon fill="#181818" points="198.9429,739.9922,188.9429,743.9922,198.9429,747.9922,194.9429,743.9922" style="stroke:#181818;stroke-width:1;"/><line style="stroke:#181818;stroke-width:1;stroke-dasharray:2,2;" x1="192.9429" x2="504.2744" y1="743.9922" y2="743.9922"/><text fill="#000000" font-family="sans-serif" font-size="13" lengthAdjust="spacing" textLength="129.3525" x="204.9429" y="738.9263">200 {date, items[]}</text></g><g class="message" data-entity-1="part2" data-entity-2="part1" id="msg18"><polygon fill="#181818" points="56.4321,784.2578,46.4321,788.2578,56.4321,792.2578,52.4321,788.2578" style="stroke:#181818;stroke-width:1;"/><line style="stroke:#181818;stroke-width:1;stroke-dasharray:2,2;" x1="50.4321" x2="186.9429" y1="788.2578" y2="788.2578"/><text fill="#000000" font-family="sans-serif" font-size="13" lengthAdjust="spacing" textLength="70.0908" x="62.4321" y="768.0591">Render list</text><text fill="#000000" font-family="sans-serif" font-size="13" lengthAdjust="spacing" textLength="4.1323" x="62.4321" y="783.1919">&#160;</text></g><?plantuml-src dPFTRfj048NlUOgHhunQ_xJA5L9IOUDKI753GzCgIYfh3LEp2jwbkukH6qNAG-G9-oITNKpIX5wLIyxCuSnyW-6cH4WAQPWG7E7tmoEa-BD6aI4CmtpBXH_0cTnm0M_WZ6i3QoblkTXeMEyXPmOzZsL6Ad35NiMKuHclc30mE5LI61JvmGakOty0J4DukdXP62PnAoInHvvipJJ289gvbz7Cyzh-qObj3M11hWegfdKZLUxHEoSbSG39UVe59gpY4sPR9Xgrvb9CIZV2NTTpJvP9_DGrbrlAWz1mKq0OBUDFgoHCqs_d5n4CnoXsliTA0mtDitd-Be3pw58TJT_1fM2rAQJYlz3fDfdLRPO0qa8sW4f9vM594yhRpkE4fgGO2ccXe57jQBv3T52OjL-BPgsPJNmGLxmNu_tqY52bQ4PpImgXwkYk3at7u_6u7uuWRp07OaZ4NczyNaX9WHtllzVzSV5YszrjVB25nrVqZ9RBKHJTY64R9kYdyPzGs1LyPINFsoMqqzELPQxL4U1YPmiwzJyHjCUWCuKe_atYSurg_tpgF-Y-NQeXAqlGXfcQ4lWq5WbDGOe5jfSrQLAX_meMDxZLrz_xfAPmPstVTXNt_S0NH8EyI_hrRXoQFm00?></g></svg>