<?plantuml 1.2026.0?><svg xmlns="http://www.w3.org/2000/svg" xmlns:xlink="http://www.w3.org/1999/xlink" contentStyleType="text/css" data-diagram-type="SEQUENCE" height="1251px" preserveAspectRatio="none" style="width:1024px;height:1251px;background:#FFFFFF;" version="1.1" viewBox="0 0 1024 1251" width="1024px" zoomAndPan="magnify"><title>Photannie &#8212; Sequence (Admin): Get booking + Cancel booking</title><defs/><g><text fill="#000000" font-family="sans-serif" font-size="14" font-weight="bold" lengthAdjust="spacing" textLength="497.0342" x="264.9338" y="27.9951">Photannie &#8212; Sequence (Admin): Get booking + Cancel booking</text><rect fill="none" height="310.9375" style="stroke:#000000;stroke-width:1.5;" width="987.9019" x="20" y="238.125"/><rect fill="none" height="177.6016" style="stroke:#000000;stroke-width:1.5;" width="967.9019" x="30" y="364.4609"/><rect fill="none" height="488.5391" style="stroke:#000000;stroke-width:1.5;" width="1007.9019" x="10" y="665.5938"/><rect fill="none" height="355.2031" style="stroke:#000000;stroke-width:1.5;" width="987.9019" x="20" y="791.9297"/><rect fill="none" height="221.8672" style="stroke:#000000;stroke-width:1.5;" width="967.9019" x="30" y="918.2656"/><g class="participant-lifeline" data-entity-uid="part1" data-qualified-name="Admin" id="part1-lifeline"><g><title>Admin</title><rect fill="#000000" fill-opacity="0.00000" height="1052.5391" width="8" x="61.4321" y="118.5938"/><line style="stroke:#181818;stroke-width:0.5;stroke-dasharray:5,5;" x1="65" x2="65" y1="118.5938" y2="1171.1328"/></g></g><g class="participant-lifeline" data-entity-uid="part2" data-qualified-name="AFE" id="part2-lifeline"><g><title>Frontend .Admin UI.</title><rect fill="#000000" fill-opacity="0.00000" height="1052.5391" width="8" x="299.0117" y="118.5938"/><line style="stroke:#181818;stroke-width:0.5;stroke-dasharray:5,5;" x1="302.9248" x2="302.9248" y1="118.5938" y2="1171.1328"/></g></g><g class="participant-lifeline" data-entity-uid="part3" data-qualified-name="API" id="part3-lifeline"><g><title>API</title><rect fill="#000000" fill-opacity="0.00000" height="1052.5391" width="8" x="631.2412" y="118.5938"/><line style="stroke:#181818;stroke-width:0.5;stroke-dasharray:5,5;" x1="635.167" x2="635.167" y1="118.5938" y2="1171.1328"/></g></g><g class="participant-lifeline" data-entity-uid="part4" data-qualified-name="DB" id="part4-lifeline"><g><title>DB</title><rect fill="#000000" fill-opacity="0.00000" height="1052.5391" width="8" x="965.9019" y="118.5938"/><line style="stroke:#181818;stroke-width:0.5;stroke-dasharray:5,5;" x1="969.9019" x2="969.9019" y1="118.5938" y2="1171.1328"/></g></g><g class="participant participant-head" data-entity-uid="part1" data-qualified-name="Admin" id="part1-head"><text fill="#000000" font-family="sans-serif" font-size="14" lengthAdjust="spacing" textLength="44.8643" x="40" y="115.292">Admin</text><ellipse cx="65.4321" cy="50.7969" fill="#E2E2F0" rx="8" ry="8" style="stroke:#181818;stroke-width:0.5;"/><path d="M65.4321,58.7969 L65.4321,85.7969 M52.4321,66.7969 L78.4321,66.7969 M65.4321,85.7969 L52.4321,100.7969 M65.4321,85.7969 L78.4321,100.7969" fill="none" style="stroke:#181818;stroke-width:0.5;"/></g><g class="participant participant-tail" data-entity-uid="part1" data-qualified-name="Admin" id="part1-tail"><text fill="#000000" font-family="sans-serif" font-size="14" lengthAdjust="spacing" textLength="44.8643" x="40" y="1183.1279">Admin</text><ellipse cx="65.4321" cy="1194.9297" fill="#E2E2F0" rx="8" ry="8" style="stroke:#181818;stroke-width:0.5;"/><path d="M65.4321,1202.9297 L65.4321,1229.9297 M52.4321,1210.9297 L78.4321,1210.9297 M65.4321,1229.9297 L52.4321,1244.9297 M65.4321,1229.9297 L78.4321,1244.9297" fill="none" style="stroke:#181818;stroke-width:0.5;"/></g><g class="participant participant-head" data-entity-uid="part2" data-qualified-name="AFE" id="part2-head"><rect fill="#E2E2F0" height="30.2969" rx="2.5" ry="2.5" style="stroke:#181818;stroke-width:0.5;" width="156.1738" x="224.9248" y="87.2969"/><text fill="#000000" font-family="sans-serif" font-size="14" lengthAdjust="spacing" textLength="142.1738" x="231.9248" y="107.292">Frontend (Admin UI)</text></g><g class="participant participant-tail" data-entity-uid="part2" data-qualified-name="AFE" id="part2-tail"><rect fill="#E2E2F0" height="30.2969" rx="2.5" ry="2.5" style="stroke:#181818;stroke-width:0.5;" width="156.1738" x="224.9248" y="1170.1328"/><text fill="#000000" font-family="sans-serif" font-size="14" lengthAdjust="spacing" textLength="142.1738" x="231.9248" y="1190.1279">Frontend (Admin UI)</text></g><g class="participant participant-head" data-entity-uid="part3" data-qualified-name="API" id="part3-head"><rect fill="#E2E2F0" height="30.2969" rx="2.5" ry="2.5" style="stroke:#181818;stroke-width:0.5;" width="36.1484" x="617.167" y="87.2969"/><text fill="#000000" font-family="sans-serif" font-size="14" lengthAdjust="spacing" textLength="22.1484" x="624.167" y="107.292">API</text></g><g class="participant participant-tail" data-entity-uid="part3" data-qualified-name="API" id="part3-tail"><rect fill="#E2E2F0" height="30.2969" rx="2.5" ry="2.5" style="stroke:#181818;stroke-width:0.5;" width="36.1484" x="617.167" y="1170.1328"/><text fill="#000000" font-family="sans-serif" font-size="14" lengthAdjust="spacing" textLength="22.1484" x="624.167" y="1190.1279">API</text></g><g class="participant participant-head" data-entity-uid="part4" data-qualified-name="DB" id="part4-head"><text fill="#000000" font-family="sans-serif" font-size="14" lengthAdjust="spacing" textLength="20.3848" x="956.7095" y="115.292">DB</text><path d="M951.9019,66.2969 C951.9019,56.2969 969.9019,56.2969 969.9019,56.2969 C969.9019,56.2969 987.9019,56.2969 987.9019,66.2969 L987.9019,92.2969 C987.9019,102.2969 969.9019,102.2969 969.9019,102.2969 C969.9019,102.2969 951.9019,102.2969 951.9019,92.2969 L951.9019,66.2969" fill="#E2E2F0" style="stroke:#181818;stroke-width:0.5;"/><path d="M951.9019,66.2969 C951.9019,76.2969 969.9019,76.2969 969.9019,76.2969 C969.9019,76.2969 987.9019,76.2969 987.9019,66.2969" fill="none" style="stroke:#181818;stroke-width:0.5;"/></g><g class="participant participant-tail" data-entity-uid="part4" data-qualified-name="DB" id="part4-tail"><text fill="#000000" font-family="sans-serif" font-size="14" lengthAdjust="spacing" textLength="20.3848" x="956.7095" y="1183.1279">DB</text><path d="M951.9019,1196.4297 C951.9019,1186.4297 969.9019,1186.4297 969.9019,1186.4297 C969.9019,1186.4297 987.9019,1186.4297 987.9019,1196.4297 L987.9019,1222.4297 C987.9019,1232.4297 969.9019,1232.4297 969.9019,1232.4297 C969.9019,1232.4297 951.9019,1232.4297 951.9019,1222.4297 L951.9019,1196.4297" fill="#E2E2F0" style="stroke:#181818;stroke-width:0.5;"/><path d="M951.9019,1196.4297 C951.9019,1206.4297 969.9019,1206.4297 969.9019,1206.4297 C969.9019,1206.4297 987.9019,1206.4297 987.9019,1196.4297" fill="none" style="stroke:#181818;stroke-width:0.5;"/></g><g class="message" data-entity-1="part1" data-entity-2="part2" id="msg1"><polygon fill="#181818" points="291.0117,145.7266,301.0117,149.7266,291.0117,153.7266,295.0117,149.7266" style="stroke:#181818;stroke-width:1;"/><line style="stroke:#181818;stroke-width:1;" x1="65.4321" x2="297.0117" y1="149.7266" y2="149.7266"/><text fill="#000000" font-family="sans-serif" font-size="13" lengthAdjust="spacing" textLength="138.0869" x="72.4321" y="144.6606">Open booking details</text></g><g class="message" data-entity-1="part2" data-entity-2="part3" id="msg2"><polygon fill="#181818" points="623.2412,189.9922,633.2412,193.9922,623.2412,197.9922,627.2412,193.9922" style="stroke:#181818;stroke-width:1;"/><line style="stroke:#181818;stroke-width:1;" x1="303.0117" x2="629.2412" y1="193.9922" y2="193.9922"/><text fill="#000000" font-family="sans-serif" font-size="13" lengthAdjust="spacing" textLength="253.7031" x="310.0117" y="173.7935">GET /api/admin/bookings/{booking_id}</text><text fill="#000000" font-family="sans-serif" font-size="13" lengthAdjust="spacing" textLength="54.2661" x="310.0117" y="188.9263">(Cookie)</text></g><g class="message" data-entity-1="part3" data-entity-2="part4" id="msg3"><polygon fill="#181818" points="957.9019,219.125,967.9019,223.125,957.9019,227.125,961.9019,223.125" style="stroke:#181818;stroke-width:1;"/><line style="stroke:#181818;stroke-width:1;" x1="635.2412" x2="963.9019" y1="223.125" y2="223.125"/><text fill="#000000" font-family="sans-serif" font-size="13" lengthAdjust="spacing" textLength="105.6504" x="642.2412" y="218.0591">Validate session</text></g><path d="M20,238.125 L84.4429,238.125 L84.4429,245.2578 L74.4429,255.2578 L20,255.2578 L20,238.125" fill="#EEEEEE" style="stroke:#000000;stroke-width:1.5;"/><rect fill="none" height="310.9375" style="stroke:#000000;stroke-width:1.5;" width="987.9019" x="20" y="238.125"/><text fill="#000000" font-family="sans-serif" font-size="13" font-weight="bold" lengthAdjust="spacing" textLength="19.4429" x="35" y="251.1919">alt</text><text fill="#000000" font-family="sans-serif" font-size="11" font-weight="bold" lengthAdjust="spacing" textLength="101.7554" x="99.4429" y="250.3354">[invalid session]</text><g class="message" data-entity-1="part3" data-entity-2="part2" id="msg4"><polygon fill="#181818" points="314.0117,272.3906,304.0117,276.3906,314.0117,280.3906,310.0117,276.3906" style="stroke:#181818;stroke-width:1;"/><line style="stroke:#181818;stroke-width:1;stroke-dasharray:2,2;" x1="308.0117" x2="634.2412" y1="276.3906" y2="276.3906"/><text fill="#000000" font-family="sans-serif" font-size="13" lengthAdjust="spacing" textLength="116.2256" x="320.0117" y="271.3247">401 Unauthorized</text></g><g class="message" data-entity-1="part2" data-entity-2="part1" id="msg5"><polygon fill="#181818" points="76.4321,301.5234,66.4321,305.5234,76.4321,309.5234,72.4321,305.5234" style="stroke:#181818;stroke-width:1;"/><line style="stroke:#181818;stroke-width:1;stroke-dasharray:2,2;" x1="70.4321" x2="302.0117" y1="305.5234" y2="305.5234"/><text fill="#000000" font-family="sans-serif" font-size="13" lengthAdjust="spacing" textLength="70.8779" x="82.4321" y="300.4575">Show login</text></g><line style="stroke:#000000;stroke-width:1;stroke-dasharray:2,2;" x1="20" x2="1007.9019" y1="314.5234" y2="314.5234"/><text fill="#000000" font-family="sans-serif" font-size="11" font-weight="bold" lengthAdjust="spacing" textLength="24.9272" x="25" y="324.7339">[ok]</text><g class="message" data-entity-1="part3" data-entity-2="part4" id="msg6"><polygon fill="#181818" points="957.9019,345.4609,967.9019,349.4609,957.9019,353.4609,961.9019,349.4609" style="stroke:#181818;stroke-width:1;"/><line style="stroke:#181818;stroke-width:1;" x1="635.2412" x2="963.9019" y1="349.4609" y2="349.4609"/><text fill="#000000" font-family="sans-serif" font-size="13" lengthAdjust="spacing" textLength="132.1011" x="642.2412" y="344.395">Select booking by id</text></g><path d="M30,364.4609 L94.4429,364.4609 L94.4429,371.5938 L84.4429,381.5938 L30,381.5938 L30,364.4609" fill="#EEEEEE" style="stroke:#000000;stroke-width:1.5;"/><rect fill="none" height="177.6016" style="stroke:#000000;stroke-width:1.5;" width="967.9019" x="30" y="364.4609"/><text fill="#000000" font-family="sans-serif" font-size="13" font-weight="bold" lengthAdjust="spacing" textLength="19.4429" x="45" y="377.5278">alt</text><text fill="#000000" font-family="sans-serif" font-size="11" font-weight="bold" lengthAdjust="spacing" textLength="70.4097" x="109.4429" y="376.6714">[not found]</text><g class="message" data-entity-1="part3" data-entity-2="part2" id="msg7"><polygon fill="#181818" points="314.0117,398.7266,304.0117,402.7266,314.0117,406.7266,310.0117,402.7266" style="stroke:#181818;stroke-width:1;"/><line style="stroke:#181818;stroke-width:1;stroke-dasharray:2,2;" x1="308.0117" x2="634.2412" y1="402.7266" y2="402.7266"/><text fill="#000000" font-family="sans-serif" font-size="13" lengthAdjust="spacing" textLength="91.8823" x="320.0117" y="397.6606">404 NotFound</text></g><g class="message" data-entity-1="part2" data-entity-2="part1" id="msg8"><polygon fill="#181818" points="76.4321,427.8594,66.4321,431.8594,76.4321,435.8594,72.4321,431.8594" style="stroke:#181818;stroke-width:1;"/><line style="stroke:#181818;stroke-width:1;stroke-dasharray:2,2;" x1="70.4321" x2="302.0117" y1="431.8594" y2="431.8594"/><text fill="#000000" font-family="sans-serif" font-size="13" lengthAdjust="spacing" textLength="101.8926" x="82.4321" y="426.7935">Show not found</text></g><line style="stroke:#000000;stroke-width:1;stroke-dasharray:2,2;" x1="30" x2="997.9019" y1="440.8594" y2="440.8594"/><text fill="#000000" font-family="sans-serif" font-size="11" font-weight="bold" lengthAdjust="spacing" textLength="45.9336" x="35" y="451.0698">[found]</text><g class="message" data-entity-1="part4" data-entity-2="part3" id="msg9"><polygon fill="#181818" points="646.2412,471.7969,636.2412,475.7969,646.2412,479.7969,642.2412,475.7969" style="stroke:#181818;stroke-width:1;"/><line style="stroke:#181818;stroke-width:1;stroke-dasharray:2,2;" x1="640.2412" x2="968.9019" y1="475.7969" y2="475.7969"/><text fill="#000000" font-family="sans-serif" font-size="13" lengthAdjust="spacing" textLength="92.46" x="652.2412" y="470.731">booking detail</text></g><g class="message" data-entity-1="part3" data-entity-2="part2" id="msg10"><polygon fill="#181818" points="314.0117,500.9297,304.0117,504.9297,314.0117,508.9297,310.0117,504.9297" style="stroke:#181818;stroke-width:1;"/><line style="stroke:#181818;stroke-width:1;stroke-dasharray:2,2;" x1="308.0117" x2="634.2412" y1="504.9297" y2="504.9297"/><text fill="#000000" font-family="sans-serif" font-size="13" lengthAdjust="spacing" textLength="119.6978" x="320.0117" y="499.8638">200 BookingDetail</text></g><g class="message" data-entity-1="part2" data-entity-2="part1" id="msg11"><polygon fill="#181818" points="76.4321,530.0625,66.4321,534.0625,76.4321,538.0625,72.4321,534.0625" style="stroke:#181818;stroke-width:1;"/><line style="stroke:#181818;stroke-width:1;stroke-dasharray:2,2;" x1="70.4321" x2="302.0117" y1="534.0625" y2="534.0625"/><text fill="#000000" font-family="sans-serif" font-size="13" lengthAdjust="spacing" textLength="82.5195" x="82.4321" y="528.9966">Show details</text></g><g class="message" data-entity-1="part1" data-entity-2="part2" id="msg12"><polygon fill="#181818" points="291.0117,573.1953,301.0117,577.1953,291.0117,581.1953,295.0117,577.1953" style="stroke:#181818;stroke-width:1;"/><line style="stroke:#181818;stroke-width:1;" x1="65.4321" x2="297.0117" y1="577.1953" y2="577.1953"/><text fill="#000000" font-family="sans-serif" font-size="13" lengthAdjust="spacing" textLength="156.5586" x="72.4321" y="572.1294">Click "Cancel" (reason?)</text></g><g class="message" data-entity-1="part2" data-entity-2="part3" id="msg13"><polygon fill="#181818" points="623.2412,617.4609,633.2412,621.4609,623.2412,625.4609,627.2412,621.4609" style="stroke:#181818;stroke-width:1;"/><line style="stroke:#181818;stroke-width:1;" x1="303.0117" x2="629.2412" y1="621.4609" y2="621.4609"/><text fill="#000000" font-family="sans-serif" font-size="13" lengthAdjust="spacing" textLength="308.2295" x="310.0117" y="601.2622">POST /api/admin/bookings/{booking_id}/cancel</text><text fill="#000000" font-family="sans-serif" font-size="13" lengthAdjust="spacing" textLength="166.5308" x="310.0117" y="616.395">(Cookie, body? {reason})</text></g><g class="message" data-entity-1="part3" data-entity-2="part4" id="msg14"><polygon fill="#181818" points="957.9019,646.5938,967.9019,650.5938,957.9019,654.5938,961.9019,650.5938" style="stroke:#181818;stroke-width:1;"/><line style="stroke:#181818;stroke-width:1;" x1="635.2412" x2="963.9019" y1="650.5938" y2="650.5938"/><text fill="#000000" font-family="sans-serif" font-size="13" lengthAdjust="spacing" textLength="105.6504" x="642.2412" y="645.5278">Validate session</text></g><path d="M10,665.5938 L74.4429,665.5938 L74.4429,672.7266 L64.4429,682.7266 L10,682.7266 L10,665.5938" fill="#EEEEEE" style="stroke:#000000;stroke-width:1.5;"/><rect fill="none" height="488.5391" style="stroke:#000000;stroke-width:1.5;" width="1007.9019" x="10" y="665.5938"/><text fill="#000000" font-family="sans-serif" font-size="13" font-weight="bold" lengthAdjust="spacing" textLength="19.4429" x="25" y="678.6606">alt</text><text fill="#000000" font-family="sans-serif" font-size="11" font-weight="bold" lengthAdjust="spacing" textLength="101.7554" x="89.4429" y="677.8042">[invalid session]</text><g class="message" data-entity-1="part3" data-entity-2="part2" id="msg15"><polygon fill="#181818" points="314.0117,699.8594,304.0117,703.8594,314.0117,707.8594,310.0117,703.8594" style="stroke:#181818;stroke-width:1;"/><line style="stroke:#181818;stroke-width:1;stroke-dasharray:2,2;" x1="308.0117" x2="634.2412" y1="703.8594" y2="703.8594"/><text fill="#000000" font-family="sans-serif" font-size="13" lengthAdjust="spacing" textLength="116.2256" x="320.0117" y="698.7935">401 Unauthorized</text></g><g class="message" data-entity-1="part2" data-entity-2="part1" id="msg16"><polygon fill="#181818" points="76.4321,728.9922,66.4321,732.9922,76.4321,736.9922,72.4321,732.9922" style="stroke:#181818;stroke-width:1;"/><line style="stroke:#181818;stroke-width:1;stroke-dasharray:2,2;" x1="70.4321" x2="302.0117" y1="732.9922" y2="732.9922"/><text fill="#000000" font-family="sans-serif" font-size="13" lengthAdjust="spacing" textLength="70.8779" x="82.4321" y="727.9263">Show login</text></g><line style="stroke:#000000;stroke-width:1;stroke-dasharray:2,2;" x1="10" x2="1017.9019" y1="741.9922" y2="741.9922"/><text fill="#000000" font-family="sans-serif" font-size="11" font-weight="bold" lengthAdjust="spacing" textLength="24.9272" x="15" y="752.2026">[ok]</text><g class="message" data-entity-1="part3" data-entity-2="part4" id="msg17"><polygon fill="#181818" points="957.9019,772.9297,967.9019,776.9297,957.9019,780.9297,961.9019,776.9297" style="stroke:#181818;stroke-width:1;"/><line style="stroke:#181818;stroke-width:1;" x1="635.2412" x2="963.9019" y1="776.9297" y2="776.9297"/><text fill="#000000" font-family="sans-serif" font-size="13" lengthAdjust="spacing" textLength="132.1011" x="642.2412" y="771.8638">Select booking by id</text></g><path d="M20,791.9297 L84.4429,791.9297 L84.4429,799.0625 L74.4429,809.0625 L20,809.0625 L20,791.9297" fill="#EEEEEE" style="stroke:#000000;stroke-width:1.5;"/><rect fill="none" height="355.2031" style="stroke:#000000;stroke-width:1.5;" width="987.9019" x="20" y="791.9297"/><text fill="#000000" font-family="sans-serif" font-size="13" font-weight="bold" lengthAdjust="spacing" textLength="19.4429" x="35" y="804.9966">alt</text><text fill="#000000" font-family="sans-serif" font-size="11" font-weight="bold" lengthAdjust="spacing" textLength="70.4097" x="99.4429" y="804.1401">[not found]</text><g class="message" data-entity-1="part3" data-entity-2="part2" id="msg18"><polygon fill="#181818" points="314.0117,826.1953,304.0117,830.1953,314.0117,834.1953,310.0117,830.1953" style="stroke:#181818;stroke-width:1;"/><line style="stroke:#181818;stroke-width:1;stroke-dasharray:2,2;" x1="308.0117" x2="634.2412" y1="830.1953" y2="830.1953"/><text fill="#000000" font-family="sans-serif" font-size="13" lengthAdjust="spacing" textLength="91.8823" x="320.0117" y="825.1294">404 NotFound</text></g><g class="message" data-entity-1="part2" data-entity-2="part1" id="msg19"><polygon fill="#181818" points="76.4321,855.3281,66.4321,859.3281,76.4321,863.3281,72.4321,859.3281" style="stroke:#181818;stroke-width:1;"/><line style="stroke:#181818;stroke-width:1;stroke-dasharray:2,2;" x1="70.4321" x2="302.0117" y1="859.3281" y2="859.3281"/><text fill="#000000" font-family="sans-serif" font-size="13" lengthAdjust="spacing" textLength="101.8926" x="82.4321" y="854.2622">Show not found</text></g><line style="stroke:#000000;stroke-width:1;stroke-dasharray:2,2;" x1="20" x2="1007.9019" y1="868.3281" y2="868.3281"/><text fill="#000000" font-family="sans-serif" font-size="11" font-weight="bold" lengthAdjust="spacing" textLength="45.9336" x="25" y="878.5386">[found]</text><g class="message" data-entity-1="part4" data-entity-2="part3" id="msg20"><polygon fill="#181818" points="646.2412,899.2656,636.2412,903.2656,646.2412,907.2656,642.2412,903.2656" style="stroke:#181818;stroke-width:1;"/><line style="stroke:#181818;stroke-width:1;stroke-dasharray:2,2;" x1="640.2412" x2="968.9019" y1="903.2656" y2="903.2656"/><text fill="#000000" font-family="sans-serif" font-size="13" lengthAdjust="spacing" textLength="140.3975" x="652.2412" y="898.1997">booking current state</text></g><path d="M30,918.2656 L94.4429,918.2656 L94.4429,925.3984 L84.4429,935.3984 L30,935.3984 L30,918.2656" fill="#EEEEEE" style="stroke:#000000;stroke-width:1.5;"/><rect fill="none" height="221.8672" style="stroke:#000000;stroke-width:1.5;" width="967.9019" x="30" y="918.2656"/><text fill="#000000" font-family="sans-serif" font-size="13" font-weight="bold" lengthAdjust="spacing" textLength="19.4429" x="45" y="931.3325">alt</text><text fill="#000000" font-family="sans-serif" font-size="11" font-weight="bold" lengthAdjust="spacing" textLength="119.061" x="109.4429" y="930.4761">[already cancelled]</text><g class="message" data-entity-1="part3" data-entity-2="part2" id="msg21"><polygon fill="#181818" points="314.0117,952.5313,304.0117,956.5313,314.0117,960.5313,310.0117,956.5313" style="stroke:#181818;stroke-width:1;"/><line style="stroke:#181818;stroke-width:1;stroke-dasharray:2,2;" x1="308.0117" x2="634.2412" y1="956.5313" y2="956.5313"/><text fill="#000000" font-family="sans-serif" font-size="13" lengthAdjust="spacing" textLength="195.9458" x="320.0117" y="951.4653">200 BookingDetail (cancelled)</text></g><g class="message" data-entity-1="part2" data-entity-2="part1" id="msg22"><polygon fill="#181818" points="76.4321,981.6641,66.4321,985.6641,76.4321,989.6641,72.4321,985.6641" style="stroke:#181818;stroke-width:1;"/><line style="stroke:#181818;stroke-width:1;stroke-dasharray:2,2;" x1="70.4321" x2="302.0117" y1="985.6641" y2="985.6641"/><text fill="#000000" font-family="sans-serif" font-size="13" lengthAdjust="spacing" textLength="167.0322" x="82.4321" y="980.5981">Show "Already cancelled"</text></g><line style="stroke:#000000;stroke-width:1;stroke-dasharray:2,2;" x1="30" x2="997.9019" y1="994.6641" y2="994.6641"/><text fill="#000000" font-family="sans-serif" font-size="11" font-weight="bold" lengthAdjust="spacing" textLength="47.6577" x="35" y="1004.8745">[active]</text><g class="message" data-entity-1="part3" data-entity-2="part4" id="msg23"><polygon fill="#181818" points="957.9019,1040.7344,967.9019,1044.7344,957.9019,1048.7344,961.9019,1044.7344" style="stroke:#181818;stroke-width:1;"/><line style="stroke:#181818;stroke-width:1;" x1="635.2412" x2="963.9019" y1="1044.7344" y2="1044.7344"/><text fill="#000000" font-family="sans-serif" font-size="13" lengthAdjust="spacing" textLength="103.0034" x="642.2412" y="1024.5356">Update booking</text><text fill="#000000" font-family="sans-serif" font-size="13" lengthAdjust="spacing" textLength="310.6606" x="642.2412" y="1039.6685">status=cancelled, cancelled_at, cancel_reason?</text></g><g class="message" data-entity-1="part4" data-entity-2="part3" id="msg24"><polygon fill="#181818" points="646.2412,1069.8672,636.2412,1073.8672,646.2412,1077.8672,642.2412,1073.8672" style="stroke:#181818;stroke-width:1;"/><line style="stroke:#181818;stroke-width:1;stroke-dasharray:2,2;" x1="640.2412" x2="968.9019" y1="1073.8672" y2="1073.8672"/><text fill="#000000" font-family="sans-serif" font-size="13" lengthAdjust="spacing" textLength="109.9795" x="652.2412" y="1068.8013">updated booking</text></g><g class="message" data-entity-1="part3" data-entity-2="part2" id="msg25"><polygon fill="#181818" points="314.0117,1099,304.0117,1103,314.0117,1107,310.0117,1103" style="stroke:#181818;stroke-width:1;"/><line style="stroke:#181818;stroke-width:1;stroke-dasharray:2,2;" x1="308.0117" x2="634.2412" y1="1103" y2="1103"/><text fill="#000000" font-family="sans-serif" font-size="13" lengthAdjust="spacing" textLength="119.6978" x="320.0117" y="1097.9341">200 BookingDetail</text></g><g class="message" data-entity-1="part2" data-entity-2="part1" id="msg26"><polygon fill="#181818" points="76.4321,1128.1328,66.4321,1132.1328,76.4321,1136.1328,72.4321,1132.1328" style="stroke:#181818;stroke-width:1;"/><line style="stroke:#181818;stroke-width:1;stroke-dasharray:2,2;" x1="70.4321" x2="302.0117" y1="1132.1328" y2="1132.1328"/><text fill="#000000" font-family="sans-serif" font-size="13" lengthAdjust="spacing" textLength="213.5796" x="82.4321" y="1127.0669">Refresh day list / show cancelled</text></g><?plantuml-src xLJBRjim4BphAnOwMMWAkKLE1jh0ik92bqQewvu266jn4nDcILUaKhX1W7v4lp1VKZuaMKuC91-GWm2HkpipdA5ak144vKOPb98JFFxz1mlwrP2i24PJzfFBP09VoC1QgIsNj_0EPcYBejk88goCgi7tHZki3Q_u3gM1U5uhQKYo5WYMHH83QfZEBuyRfsKH2cKHCJIuHaqGvvdVpBCe2lFlFxlH2LpjIFPw61daGaUsuXlAmkgz_0ufxdYARYvjMtLwtxwjE7kubgEPMr5YuSl2pURP17wWu5O2WIQjkP8H2WDSthdjVW_0JtHwpiSVO2cnCHjLyp_4NDsfSNKdO0ABZVeDGjrQXqZOiwbjXn5O5oIeEdYytWDtA8vRAWCtgf5k_Opt7BugCpzKJx0Evptt0IpFGhUpxDZEvrmVnsF8Gay-Q3b1s0LYwIoFUvx4DnEysa8Shb4CevfGAtcH74LONYrUpZ2jF4OVvPaz1jjVm7s0V7YBTXXjrTGrsSzD6sk2xt8YK5Yps1w2bOB2_4lfmwZlJxg14mhZwLFqs7TxjVQ_mUzeI1SSM-vyIgtiQ-dqDlfJ3t5sG5kXwLQhzXgrU4C36W_8-Z_MQmvu-b3VwAOclG66Un1S6qX1ktCUcqSXaN3x_mC0?></g></svg>