<?plantuml 1.2026.0?><svg xmlns="http://www.w3.org/2000/svg" xmlns:xlink="http://www.w3.org/1999/xlink" contentStyleType="text/css" data-diagram-type="SEQUENCE" height="1040px" preserveAspectRatio="none" style="width:957px;height:1040px;background:#FFFFFF;" version="1.1" viewBox="0 0 957 1040" width="957px" zoomAndPan="magnify"><title>Photannie &#8212; Sequence (Public): Create booking</title><defs/><g><text fill="#000000" font-family="sans-serif" font-size="14" font-weight="bold" lengthAdjust="spacing" textLength="377.6104" x="290.9861" y="27.9951">Photannie &#8212; Sequence (Public): Create booking</text><rect fill="none" height="585.5469" style="stroke:#000000;stroke-width:1.5;" width="940.5825" x="10" y="357.0547"/><rect fill="none" height="365.8125" style="stroke:#000000;stroke-width:1.5;" width="920.5825" x="20" y="569.7891"/><rect fill="none" height="217.3438" style="stroke:#000000;stroke-width:1.5;" width="900.5825" x="30" y="711.2578"/><g class="participant-lifeline" data-entity-uid="part1" data-qualified-name="Client" id="part1-lifeline"><g><title>Client</title><rect fill="#000000" fill-opacity="0.00000" height="841.0078" width="8" x="59.2651" y="118.5938"/><line style="stroke:#181818;stroke-width:0.5;stroke-dasharray:5,5;" x1="63" x2="63" y1="118.5938" y2="959.6016"/></g></g><g class="participant-lifeline" data-entity-uid="part2" data-qualified-name="FE" id="part2-lifeline"><g><title>Frontend .Public UI.</title><rect fill="#000000" fill-opacity="0.00000" height="841.0078" width="8" x="229.0391" y="118.5938"/><line style="stroke:#181818;stroke-width:0.5;stroke-dasharray:5,5;" x1="232.5449" x2="232.5449" y1="118.5938" y2="959.6016"/></g></g><g class="participant-lifeline" data-entity-uid="part3" data-qualified-name="API" id="part3-lifeline"><g><title>API</title><rect fill="#000000" fill-opacity="0.00000" height="841.0078" width="8" x="645.7432" y="118.5938"/><line style="stroke:#181818;stroke-width:0.5;stroke-dasharray:5,5;" x1="649.6689" x2="649.6689" y1="118.5938" y2="959.6016"/></g></g><g class="participant-lifeline" data-entity-uid="part4" data-qualified-name="DB" id="part4-lifeline"><g><title>DB</title><rect fill="#000000" fill-opacity="0.00000" height="841.0078" width="8" x="898.5825" y="118.5938"/><line style="stroke:#181818;stroke-width:0.5;stroke-dasharray:5,5;" x1="902.5825" x2="902.5825" y1="118.5938" y2="959.6016"/></g></g><g class="participant participant-head" data-entity-uid="part1" data-qualified-name="Client" id="part1-head"><text fill="#000000" font-family="sans-serif" font-size="14" lengthAdjust="spacing" textLength="40.5303" x="40" y="115.292">Client</text><ellipse cx="63.2651" cy="50.7969" fill="#E2E2F0" rx="8" ry="8" style="stroke:#181818;stroke-width:0.5;"/><path d="M63.2651,58.7969 L63.2651,85.7969 M50.2651,66.7969 L76.2651,66.7969 M63.2651,85.7969 L50.2651,100.7969 M63.2651,85.7969 L76.2651,100.7969" fill="none" style="stroke:#181818;stroke-width:0.5;"/></g><g class="participant participant-tail" data-entity-uid="part1" data-qualified-name="Client" id="part1-tail"><text fill="#000000" font-family="sans-serif" font-size="14" lengthAdjust="spacing" textLength="40.5303" x="40" y="971.5967">Client</text><ellipse cx="63.2651" cy="983.3984" fill="#E2E2F0" rx="8" ry="8" style="stroke:#181818;stroke-width:0.5;"/><path d="M63.2651,991.3984 L63.2651,1018.3984 M50.2651,999.3984 L76.2651,999.3984 M63.2651,1018.3984 L50.2651,1033.3984 M63.2651,1018.3984 L76.2651,1033.3984" fill="none" style="stroke:#181818;stroke-width:0.5;"/></g><g class="participant participant-head" data-entity-uid="part2" data-qualified-name="FE" id="part2-head"><rect fill="#E2E2F0" height="30.2969" rx="2.5" ry="2.5" style="stroke:#181818;stroke-width:0.5;" width="152.9883" x="156.5449" y="87.2969"/><text fill="#000000" font-family="sans-serif" font-size="14" lengthAdjust="spacing" textLength="138.9883" x="163.5449" y="107.292">Frontend (Public UI)</text></g><g class="participant participant-tail" data-entity-uid="part2" data-qualified-name="FE" id="part2-tail"><rect fill="#E2E2F0" height="30.2969" rx="2.5" ry="2.5" style="stroke:#181818;stroke-width:0.5;" width="152.9883" x="156.5449" y="958.6016"/><text fill="#000000" font-family="sans-serif" font-size="14" lengthAdjust="spacing" textLength="138.9883" x="163.5449" y="978.5967">Frontend (Public UI)</text></g><g class="participant participant-head" data-entity-uid="part3" data-qualified-name="API" id="part3-head"><rect fill="#E2E2F0" height="30.2969" rx="2.5" ry="2.5" style="stroke:#181818;stroke-width:0.5;" width="36.1484" x="631.6689" y="87.2969"/><text fill="#000000" font-family="sans-serif" font-size="14" lengthAdjust="spacing" textLength="22.1484" x="638.6689" y="107.292">API</text></g><g class="participant participant-tail" data-entity-uid="part3" data-qualified-name="API" id="part3-tail"><rect fill="#E2E2F0" height="30.2969" rx="2.5" ry="2.5" style="stroke:#181818;stroke-width:0.5;" width="36.1484" x="631.6689" y="958.6016"/><text fill="#000000" font-family="sans-serif" font-size="14" lengthAdjust="spacing" textLength="22.1484" x="638.6689" y="978.5967">API</text></g><g class="participant participant-head" data-entity-uid="part4" data-qualified-name="DB" id="part4-head"><text fill="#000000" font-family="sans-serif" font-size="14" lengthAdjust="spacing" textLength="20.3848" x="889.3901" y="115.292">DB</text><path d="M884.5825,66.2969 C884.5825,56.2969 902.5825,56.2969 902.5825,56.2969 C902.5825,56.2969 920.5825,56.2969 920.5825,66.2969 L920.5825,92.2969 C920.5825,102.2969 902.5825,102.2969 902.5825,102.2969 C902.5825,102.2969 884.5825,102.2969 884.5825,92.2969 L884.5825,66.2969" fill="#E2E2F0" style="stroke:#181818;stroke-width:0.5;"/><path d="M884.5825,66.2969 C884.5825,76.2969 902.5825,76.2969 902.5825,76.2969 C902.5825,76.2969 920.5825,76.2969 920.5825,66.2969" fill="none" style="stroke:#181818;stroke-width:0.5;"/></g><g class="participant participant-tail" data-entity-uid="part4" data-qualified-name="DB" id="part4-tail"><text fill="#000000" font-family="sans-serif" font-size="14" lengthAdjust="spacing" textLength="20.3848" x="889.3901" y="971.5967">DB</text><path d="M884.5825,984.8984 C884.5825,974.8984 902.5825,974.8984 902.5825,974.8984 C902.5825,974.8984 920.5825,974.8984 920.5825,984.8984 L920.5825,1010.8984 C920.5825,1020.8984 902.5825,1020.8984 902.5825,1020.8984 C902.5825,1020.8984 884.5825,1020.8984 884.5825,1010.8984 L884.5825,984.8984" fill="#E2E2F0" style="stroke:#181818;stroke-width:0.5;"/><path d="M884.5825,984.8984 C884.5825,994.8984 902.5825,994.8984 902.5825,994.8984 C902.5825,994.8984 920.5825,994.8984 920.5825,984.8984" fill="none" style="stroke:#181818;stroke-width:0.5;"/></g><g class="message" data-entity-1="part1" data-entity-2="part2" id="msg1"><polygon fill="#181818" points="221.0391,145.7266,231.0391,149.7266,221.0391,153.7266,225.0391,149.7266" style="stroke:#181818;stroke-width:1;"/><line style="stroke:#181818;stroke-width:1;" x1="63.2651" x2="227.0391" y1="149.7266" y2="149.7266"/><text fill="#000000" font-family="sans-serif" font-size="13" lengthAdjust="spacing" textLength="145.7739" x="70.2651" y="144.6606">Fill form + choose slot</text></g><g class="message" data-entity-1="part2" data-entity-2="part3" id="msg2"><polygon fill="#181818" points="637.7432,189.9922,647.7432,193.9922,637.7432,197.9922,641.7432,193.9922" style="stroke:#181818;stroke-width:1;"/><line style="stroke:#181818;stroke-width:1;" x1="233.0391" x2="643.7432" y1="193.9922" y2="193.9922"/><text fill="#000000" font-family="sans-serif" font-size="13" lengthAdjust="spacing" textLength="169.0444" x="240.0391" y="173.7935">POST /api/public/bookings</text><text fill="#000000" font-family="sans-serif" font-size="13" lengthAdjust="spacing" textLength="392.7041" x="240.0391" y="188.9263">{date,start_time,duration_minutes,name,phone,comment?}</text></g><g class="message" data-entity-1="part3" data-entity-2="part3" id="msg3"><line style="stroke:#181818;stroke-width:1;" x1="649.7432" x2="691.7432" y1="329.0547" y2="329.0547"/><line style="stroke:#181818;stroke-width:1;" x1="691.7432" x2="691.7432" y1="329.0547" y2="342.0547"/><line style="stroke:#181818;stroke-width:1;" x1="650.7432" x2="691.7432" y1="342.0547" y2="342.0547"/><polygon fill="#181818" points="660.7432,338.0547,650.7432,342.0547,660.7432,346.0547,656.7432,342.0547" style="stroke:#181818;stroke-width:1;"/><text fill="#000000" font-family="sans-serif" font-size="13" lengthAdjust="spacing" textLength="109.2241" x="656.7432" y="218.0591">Validate payload</text><text fill="#000000" font-family="sans-serif" font-size="13" lengthAdjust="spacing" textLength="59.1982" x="656.7432" y="233.1919">- formats</text><text fill="#000000" font-family="sans-serif" font-size="13" lengthAdjust="spacing" textLength="66.8916" x="656.7432" y="248.3247">- weekday</text><text fill="#000000" font-family="sans-serif" font-size="13" lengthAdjust="spacing" textLength="86.0996" x="656.7432" y="263.4575">- &lt;= 90 days</text><text fill="#000000" font-family="sans-serif" font-size="13" lengthAdjust="spacing" textLength="184.063" x="656.7432" y="278.5903">- start_time aligns to 30 min</text><text fill="#000000" font-family="sans-serif" font-size="13" lengthAdjust="spacing" textLength="158.082" x="656.7432" y="293.7231">- duration multiple of 30</text><text fill="#000000" font-family="sans-serif" font-size="13" lengthAdjust="spacing" textLength="134.418" x="656.7432" y="308.856">- work hours window</text><text fill="#000000" font-family="sans-serif" font-size="13" lengthAdjust="spacing" textLength="85.1982" x="656.7432" y="323.9888">- phone +7...</text></g><path d="M10,357.0547 L74.4429,357.0547 L74.4429,364.1875 L64.4429,374.1875 L10,374.1875 L10,357.0547" fill="#EEEEEE" style="stroke:#000000;stroke-width:1.5;"/><rect fill="none" height="585.5469" style="stroke:#000000;stroke-width:1.5;" width="940.5825" x="10" y="357.0547"/><text fill="#000000" font-family="sans-serif" font-size="13" font-weight="bold" lengthAdjust="spacing" textLength="19.4429" x="25" y="370.1216">alt</text><text fill="#000000" font-family="sans-serif" font-size="11" font-weight="bold" lengthAdjust="spacing" textLength="107.0244" x="89.4429" y="369.2651">[validation error]</text><g class="message" data-entity-1="part3" data-entity-2="part2" id="msg4"><polygon fill="#181818" points="244.0391,391.3203,234.0391,395.3203,244.0391,399.3203,240.0391,395.3203" style="stroke:#181818;stroke-width:1;"/><line style="stroke:#181818;stroke-width:1;stroke-dasharray:2,2;" x1="238.0391" x2="648.7432" y1="395.3203" y2="395.3203"/><text fill="#000000" font-family="sans-serif" font-size="13" lengthAdjust="spacing" textLength="126.3501" x="250.0391" y="390.2544">422 ValidationError</text></g><g class="message" data-entity-1="part2" data-entity-2="part1" id="msg5"><polygon fill="#181818" points="74.2651,420.4531,64.2651,424.4531,74.2651,428.4531,70.2651,424.4531" style="stroke:#181818;stroke-width:1;"/><line style="stroke:#181818;stroke-width:1;stroke-dasharray:2,2;" x1="68.2651" x2="232.0391" y1="424.4531" y2="424.4531"/><text fill="#000000" font-family="sans-serif" font-size="13" lengthAdjust="spacing" textLength="110.1509" x="80.2651" y="419.3872">Show field errors</text></g><line style="stroke:#000000;stroke-width:1;stroke-dasharray:2,2;" x1="10" x2="950.5825" y1="433.4531" y2="433.4531"/><text fill="#000000" font-family="sans-serif" font-size="11" font-weight="bold" lengthAdjust="spacing" textLength="24.9272" x="15" y="443.6636">[ok]</text><g class="message" data-entity-1="part3" data-entity-2="part4" id="msg6"><polygon fill="#181818" points="890.5825,479.5234,900.5825,483.5234,890.5825,487.5234,894.5825,483.5234" style="stroke:#181818;stroke-width:1;"/><line style="stroke:#181818;stroke-width:1;" x1="649.7432" x2="896.5825" y1="483.5234" y2="483.5234"/><text fill="#000000" font-family="sans-serif" font-size="13" lengthAdjust="spacing" textLength="195" x="656.7432" y="463.3247">Read existing active bookings</text><text fill="#000000" font-family="sans-serif" font-size="13" lengthAdjust="spacing" textLength="227.0303" x="656.7432" y="478.4575">for date (or for [start,end) overlap)</text></g><g class="message" data-entity-1="part4" data-entity-2="part3" id="msg7"><polygon fill="#181818" points="660.7432,508.6563,650.7432,512.6563,660.7432,516.6563,656.7432,512.6563" style="stroke:#181818;stroke-width:1;"/><line style="stroke:#181818;stroke-width:1;stroke-dasharray:2,2;" x1="654.7432" x2="901.5825" y1="512.6563" y2="512.6563"/><text fill="#000000" font-family="sans-serif" font-size="13" lengthAdjust="spacing" textLength="114.7212" x="666.7432" y="507.5903">active_bookings[]</text></g><g class="message" data-entity-1="part3" data-entity-2="part3" id="msg8"><line style="stroke:#181818;stroke-width:1;" x1="649.7432" x2="691.7432" y1="541.7891" y2="541.7891"/><line style="stroke:#181818;stroke-width:1;" x1="691.7432" x2="691.7432" y1="541.7891" y2="554.7891"/><line style="stroke:#181818;stroke-width:1;" x1="650.7432" x2="691.7432" y1="554.7891" y2="554.7891"/><polygon fill="#181818" points="660.7432,550.7891,650.7432,554.7891,660.7432,558.7891,656.7432,554.7891" style="stroke:#181818;stroke-width:1;"/><text fill="#000000" font-family="sans-serif" font-size="13" lengthAdjust="spacing" textLength="194.3335" x="656.7432" y="536.7231">Check overlap in service logic</text></g><path d="M20,569.7891 L84.4429,569.7891 L84.4429,576.9219 L74.4429,586.9219 L20,586.9219 L20,569.7891" fill="#EEEEEE" style="stroke:#000000;stroke-width:1.5;"/><rect fill="none" height="365.8125" style="stroke:#000000;stroke-width:1.5;" width="920.5825" x="20" y="569.7891"/><text fill="#000000" font-family="sans-serif" font-size="13" font-weight="bold" lengthAdjust="spacing" textLength="19.4429" x="35" y="582.856">alt</text><text fill="#000000" font-family="sans-serif" font-size="11" font-weight="bold" lengthAdjust="spacing" textLength="115.731" x="99.4429" y="581.9995">[overlap detected]</text><g class="message" data-entity-1="part3" data-entity-2="part2" id="msg9"><polygon fill="#181818" points="244.0391,604.0547,234.0391,608.0547,244.0391,612.0547,240.0391,608.0547" style="stroke:#181818;stroke-width:1;"/><line style="stroke:#181818;stroke-width:1;stroke-dasharray:2,2;" x1="238.0391" x2="648.7432" y1="608.0547" y2="608.0547"/><text fill="#000000" font-family="sans-serif" font-size="13" lengthAdjust="spacing" textLength="110.4746" x="250.0391" y="602.9888">409 TimeConflict</text></g><g class="message" data-entity-1="part2" data-entity-2="part1" id="msg10"><polygon fill="#181818" points="74.2651,633.1875,64.2651,637.1875,74.2651,641.1875,70.2651,637.1875" style="stroke:#181818;stroke-width:1;"/><line style="stroke:#181818;stroke-width:1;stroke-dasharray:2,2;" x1="68.2651" x2="232.0391" y1="637.1875" y2="637.1875"/><text fill="#000000" font-family="sans-serif" font-size="13" lengthAdjust="spacing" textLength="124.9282" x="80.2651" y="632.1216">"Slot already busy"</text></g><line style="stroke:#000000;stroke-width:1;stroke-dasharray:2,2;" x1="20" x2="940.5825" y1="646.1875" y2="646.1875"/><text fill="#000000" font-family="sans-serif" font-size="11" font-weight="bold" lengthAdjust="spacing" textLength="173.481" x="25" y="656.3979">[no overlap in this moment]</text><g class="message" data-entity-1="part3" data-entity-2="part4" id="msg11"><polygon fill="#181818" points="890.5825,692.2578,900.5825,696.2578,890.5825,700.2578,894.5825,696.2578" style="stroke:#181818;stroke-width:1;"/><line style="stroke:#181818;stroke-width:1;" x1="649.7432" x2="896.5825" y1="696.2578" y2="696.2578"/><text fill="#000000" font-family="sans-serif" font-size="13" lengthAdjust="spacing" textLength="228.8394" x="656.7432" y="676.0591">Insert new booking (status=active)</text><text fill="#000000" font-family="sans-serif" font-size="13" lengthAdjust="spacing" textLength="4.1323" x="656.7432" y="691.1919">&#160;</text></g><path d="M30,711.2578 L94.4429,711.2578 L94.4429,718.3906 L84.4429,728.3906 L30,728.3906 L30,711.2578" fill="#EEEEEE" style="stroke:#000000;stroke-width:1.5;"/><rect fill="none" height="217.3438" style="stroke:#000000;stroke-width:1.5;" width="900.5825" x="30" y="711.2578"/><text fill="#000000" font-family="sans-serif" font-size="13" font-weight="bold" lengthAdjust="spacing" textLength="19.4429" x="45" y="724.3247">alt</text><text fill="#000000" font-family="sans-serif" font-size="11" font-weight="bold" lengthAdjust="spacing" textLength="210.9443" x="109.4429" y="723.4683">[concurrent conflict at insert time</text><text fill="#000000" font-family="sans-serif" font-size="11" font-weight="bold" lengthAdjust="spacing" textLength="200.6265" x="109.4429" y="736.2729">(another request inserted first)]</text><g class="message" data-entity-1="part4" data-entity-2="part3" id="msg12"><polygon fill="#181818" points="660.7432,756.1328,650.7432,760.1328,660.7432,764.1328,656.7432,760.1328" style="stroke:#181818;stroke-width:1;"/><line style="stroke:#181818;stroke-width:1;stroke-dasharray:2,2;" x1="654.7432" x2="901.5825" y1="760.1328" y2="760.1328"/><text fill="#000000" font-family="sans-serif" font-size="13" lengthAdjust="spacing" textLength="154.6733" x="666.7432" y="755.0669">insert rejected / conflict</text></g><g class="message" data-entity-1="part3" data-entity-2="part2" id="msg13"><polygon fill="#181818" points="244.0391,785.2656,234.0391,789.2656,244.0391,793.2656,240.0391,789.2656" style="stroke:#181818;stroke-width:1;"/><line style="stroke:#181818;stroke-width:1;stroke-dasharray:2,2;" x1="238.0391" x2="648.7432" y1="789.2656" y2="789.2656"/><text fill="#000000" font-family="sans-serif" font-size="13" lengthAdjust="spacing" textLength="110.4746" x="250.0391" y="784.1997">409 TimeConflict</text></g><g class="message" data-entity-1="part2" data-entity-2="part1" id="msg14"><polygon fill="#181818" points="74.2651,814.3984,64.2651,818.3984,74.2651,822.3984,70.2651,818.3984" style="stroke:#181818;stroke-width:1;"/><line style="stroke:#181818;stroke-width:1;stroke-dasharray:2,2;" x1="68.2651" x2="232.0391" y1="818.3984" y2="818.3984"/><text fill="#000000" font-family="sans-serif" font-size="13" lengthAdjust="spacing" textLength="124.9282" x="80.2651" y="813.3325">"Slot already busy"</text></g><line style="stroke:#000000;stroke-width:1;stroke-dasharray:2,2;" x1="30" x2="930.5825" y1="827.3984" y2="827.3984"/><text fill="#000000" font-family="sans-serif" font-size="11" font-weight="bold" lengthAdjust="spacing" textLength="65.0493" x="35" y="837.6089">[insert ok]</text><g class="message" data-entity-1="part4" data-entity-2="part3" id="msg15"><polygon fill="#181818" points="660.7432,858.3359,650.7432,862.3359,660.7432,866.3359,656.7432,862.3359" style="stroke:#181818;stroke-width:1;"/><line style="stroke:#181818;stroke-width:1;stroke-dasharray:2,2;" x1="654.7432" x2="901.5825" y1="862.3359" y2="862.3359"/><text fill="#000000" font-family="sans-serif" font-size="13" lengthAdjust="spacing" textLength="134.3418" x="666.7432" y="857.27">inserted timestamps</text></g><g class="message" data-entity-1="part3" data-entity-2="part2" id="msg16"><polygon fill="#181818" points="244.0391,887.4688,234.0391,891.4688,244.0391,895.4688,240.0391,891.4688" style="stroke:#181818;stroke-width:1;"/><line style="stroke:#181818;stroke-width:1;stroke-dasharray:2,2;" x1="238.0391" x2="648.7432" y1="891.4688" y2="891.4688"/><text fill="#000000" font-family="sans-serif" font-size="13" lengthAdjust="spacing" textLength="187.9033" x="250.0391" y="886.4028">201 BookingCreateResponse</text></g><g class="message" data-entity-1="part2" data-entity-2="part1" id="msg17"><polygon fill="#181818" points="74.2651,916.6016,64.2651,920.6016,74.2651,924.6016,70.2651,920.6016" style="stroke:#181818;stroke-width:1;"/><line style="stroke:#181818;stroke-width:1;stroke-dasharray:2,2;" x1="68.2651" x2="232.0391" y1="920.6016" y2="920.6016"/><text fill="#000000" font-family="sans-serif" font-size="13" lengthAdjust="spacing" textLength="118.3521" x="80.2651" y="915.5356">"Booking created"</text></g><?plantuml-src ZLJ1RXen4BtlLumuWK82JIjLGKsg0a7AgIYalOGgChi3w-BrRErPAAegzIFwXVsIZhsxIHEbQW-0rtxpvldDMrYpGPZdnCfQZV3hnqzOu9SAROhGdLShezFU22OE5IEiYBRQRf94fKmE9aQZvQHKZdMgIsKPEZD7bj5cRJ5ykEfrG7cONJu6lfjVnNtvJJB5QgKyGcSwZflJSPBKx71y8QKZc6bZO4skW2D8So81UqESp2u3GaX6C7-_k861AlMWZAq7ZLo_jD-a0_OzYu0xrWNsiyefrcJl2cqhHj-tIdRBd2psKoeAwVpsUv88xptzHsLqe85I7GofR6cFeo35FYptYDjC7SBopJcS3K4Uui53Ln26ZVN012-789t3SQi4YigmBcKQj9RZI4bk2pbLpiDUsupsOJDgXAFN9oSdYJ8CkrfMO43do2K0KNNZswlJqrQvG2uRH71D0BN58rZaj8UrHfFL73v18mRJjYMxa8cCu1gL0Bvgp-8gI0RqxZuJSbKn0w91NLc4XzjuzRwaeGUqGsTKsHF6wJWsZwRM97SjoUsdvA5b14noJBTjDMWB7jrEIpWDRNGguE11UvmXOygOoVOJ5uPdS2CJc91TIp8u0fwOq5b8deHEefuTO5NvGqTWqGXBVohWN7ieA6JaeL7jq9KLUGmMzwqlq1KJkFBdzKrxInjhWkgKR5ev5qAUDhf0iNI8724mIzjLbZX71owybBuznKp6vJpt8jbZIvjwXv-Z5p2uPs_0_pJcFwrfp6dwnR0yhqL4XDk84KNfdn5nEdm1uzgk-e_c6dr9KleNDGqMqWZE6YqsZ3ryo-St?></g></svg>