<?plantuml 1.2026.0?><svg xmlns="http://www.w3.org/2000/svg" xmlns:xlink="http://www.w3.org/1999/xlink" contentStyleType="text/css" data-diagram-type="SEQUENCE" height="700px" preserveAspectRatio="none" style="width:847px;height:700px;background:#FFFFFF;" version="1.1" viewBox="0 0 847 700" width="847px" zoomAndPan="magnify"><title>Photannie &#8212; Sequence (Public): Get free slots by date</title><defs/><g><text fill="#000000" font-family="sans-serif" font-size="14" font-weight="bold" lengthAdjust="spacing" textLength="428.8115" x="210.4766" y="27.9951">Photannie &#8212; Sequence (Public): Get free slots by date</text><rect fill="none" height="336.3984" style="stroke:#000000;stroke-width:1.5;" width="830.7646" x="10" y="266.2578"/><g class="participant-lifeline" data-entity-uid="part1" data-qualified-name="Client" id="part1-lifeline"><g><title>Client</title><rect fill="#000000" fill-opacity="0.00000" height="501.0625" width="8" x="39.2651" y="118.5938"/><line style="stroke:#181818;stroke-width:0.5;stroke-dasharray:5,5;" x1="43" x2="43" y1="118.5938" y2="619.6563"/></g></g><g class="participant-lifeline" data-entity-uid="part2" data-qualified-name="FE" id="part2-lifeline"><g><title>Frontend .Public UI.</title><rect fill="#000000" fill-opacity="0.00000" height="501.0625" width="8" x="234.6899" y="118.5938"/><line style="stroke:#181818;stroke-width:0.5;stroke-dasharray:5,5;" x1="238.1958" x2="238.1958" y1="118.5938" y2="619.6563"/></g></g><g class="participant-lifeline" data-entity-uid="part3" data-qualified-name="API" id="part3-lifeline"><g><title>API</title><rect fill="#000000" fill-opacity="0.00000" height="501.0625" width="8" x="522.0479" y="118.5938"/><line style="stroke:#181818;stroke-width:0.5;stroke-dasharray:5,5;" x1="525.9736" x2="525.9736" y1="118.5938" y2="619.6563"/></g></g><g class="participant-lifeline" data-entity-uid="part4" data-qualified-name="DB" id="part4-lifeline"><g><title>DB</title><rect fill="#000000" fill-opacity="0.00000" height="501.0625" width="8" x="808.7646" y="118.5938"/><line style="stroke:#181818;stroke-width:0.5;stroke-dasharray:5,5;" x1="812.7646" x2="812.7646" y1="118.5938" y2="619.6563"/></g></g><g class="participant participant-head" data-entity-uid="part1" data-qualified-name="Client" id="part1-head"><text fill="#000000" font-family="sans-serif" font-size="14" lengthAdjust="spacing" textLength="40.5303" x="20" y="115.292">Client</text><ellipse cx="43.2651" cy="50.7969" fill="#E2E2F0" rx="8" ry="8" style="stroke:#181818;stroke-width:0.5;"/><path d="M43.2651,58.7969 L43.2651,85.7969 M30.2651,66.7969 L56.2651,66.7969 M43.2651,85.7969 L30.2651,100.7969 M43.2651,85.7969 L56.2651,100.7969" fill="none" style="stroke:#181818;stroke-width:0.5;"/></g><g class="participant participant-tail" data-entity-uid="part1" data-qualified-name="Client" id="part1-tail"><text fill="#000000" font-family="sans-serif" font-size="14" lengthAdjust="spacing" textLength="40.5303" x="20" y="631.6514">Client</text><ellipse cx="43.2651" cy="643.4531" fill="#E2E2F0" rx="8" ry="8" style="stroke:#181818;stroke-width:0.5;"/><path d="M43.2651,651.4531 L43.2651,678.4531 M30.2651,659.4531 L56.2651,659.4531 M43.2651,678.4531 L30.2651,693.4531 M43.2651,678.4531 L56.2651,693.4531" fill="none" style="stroke:#181818;stroke-width:0.5;"/></g><g class="participant participant-head" data-entity-uid="part2" data-qualified-name="FE" id="part2-head"><rect fill="#E2E2F0" height="30.2969" rx="2.5" ry="2.5" style="stroke:#181818;stroke-width:0.5;" width="152.9883" x="162.1958" y="87.2969"/><text fill="#000000" font-family="sans-serif" font-size="14" lengthAdjust="spacing" textLength="138.9883" x="169.1958" y="107.292">Frontend (Public UI)</text></g><g class="participant participant-tail" data-entity-uid="part2" data-qualified-name="FE" id="part2-tail"><rect fill="#E2E2F0" height="30.2969" rx="2.5" ry="2.5" style="stroke:#181818;stroke-width:0.5;" width="152.9883" x="162.1958" y="618.6563"/><text fill="#000000" font-family="sans-serif" font-size="14" lengthAdjust="spacing" textLength="138.9883" x="169.1958" y="638.6514">Frontend (Public UI)</text></g><g class="participant participant-head" data-entity-uid="part3" data-qualified-name="API" id="part3-head"><rect fill="#E2E2F0" height="30.2969" rx="2.5" ry="2.5" style="stroke:#181818;stroke-width:0.5;" width="36.1484" x="507.9736" y="87.2969"/><text fill="#000000" font-family="sans-serif" font-size="14" lengthAdjust="spacing" textLength="22.1484" x="514.9736" y="107.292">API</text></g><g class="participant participant-tail" data-entity-uid="part3" data-qualified-name="API" id="part3-tail"><rect fill="#E2E2F0" height="30.2969" rx="2.5" ry="2.5" style="stroke:#181818;stroke-width:0.5;" width="36.1484" x="507.9736" y="618.6563"/><text fill="#000000" font-family="sans-serif" font-size="14" lengthAdjust="spacing" textLength="22.1484" x="514.9736" y="638.6514">API</text></g><g class="participant participant-head" data-entity-uid="part4" data-qualified-name="DB" id="part4-head"><text fill="#000000" font-family="sans-serif" font-size="14" lengthAdjust="spacing" textLength="20.3848" x="799.5723" y="115.292">DB</text><path d="M794.7646,66.2969 C794.7646,56.2969 812.7646,56.2969 812.7646,56.2969 C812.7646,56.2969 830.7646,56.2969 830.7646,66.2969 L830.7646,92.2969 C830.7646,102.2969 812.7646,102.2969 812.7646,102.2969 C812.7646,102.2969 794.7646,102.2969 794.7646,92.2969 L794.7646,66.2969" fill="#E2E2F0" style="stroke:#181818;stroke-width:0.5;"/><path d="M794.7646,66.2969 C794.7646,76.2969 812.7646,76.2969 812.7646,76.2969 C812.7646,76.2969 830.7646,76.2969 830.7646,66.2969" fill="none" style="stroke:#181818;stroke-width:0.5;"/></g><g class="participant participant-tail" data-entity-uid="part4" data-qualified-name="DB" id="part4-tail"><text fill="#000000" font-family="sans-serif" font-size="14" lengthAdjust="spacing" textLength="20.3848" x="799.5723" y="631.6514">DB</text><path d="M794.7646,644.9531 C794.7646,634.9531 812.7646,634.9531 812.7646,634.9531 C812.7646,634.9531 830.7646,634.9531 830.7646,644.9531 L830.7646,670.9531 C830.7646,680.9531 812.7646,680.9531 812.7646,680.9531 C812.7646,680.9531 794.7646,680.9531 794.7646,670.9531 L794.7646,644.9531" fill="#E2E2F0" style="stroke:#181818;stroke-width:0.5;"/><path d="M794.7646,644.9531 C794.7646,654.9531 812.7646,654.9531 812.7646,654.9531 C812.7646,654.9531 830.7646,654.9531 830.7646,644.9531" fill="none" style="stroke:#181818;stroke-width:0.5;"/></g><g class="message" data-entity-1="part1" data-entity-2="part2" id="msg1"><polygon fill="#181818" points="226.6899,145.7266,236.6899,149.7266,226.6899,153.7266,230.6899,149.7266" style="stroke:#181818;stroke-width:1;"/><line style="stroke:#181818;stroke-width:1;" x1="43.2651" x2="232.6899" y1="149.7266" y2="149.7266"/><text fill="#000000" font-family="sans-serif" font-size="13" lengthAdjust="spacing" textLength="171.4248" x="50.2651" y="144.6606">Select date (YYYY-MM-DD)</text></g><g class="message" data-entity-1="part2" data-entity-2="part3" id="msg2"><polygon fill="#181818" points="514.0479,174.8594,524.0479,178.8594,514.0479,182.8594,518.0479,178.8594" style="stroke:#181818;stroke-width:1;"/><line style="stroke:#181818;stroke-width:1;" x1="238.6899" x2="520.0479" y1="178.8594" y2="178.8594"/><text fill="#000000" font-family="sans-serif" font-size="13" lengthAdjust="spacing" textLength="263.3579" x="245.6899" y="173.7935">GET /api/public/slots?date=YYYY-MM-DD</text></g><g class="message" data-entity-1="part3" data-entity-2="part3" id="msg3"><line style="stroke:#181818;stroke-width:1;" x1="526.0479" x2="568.0479" y1="238.2578" y2="238.2578"/><line style="stroke:#181818;stroke-width:1;" x1="568.0479" x2="568.0479" y1="238.2578" y2="251.2578"/><line style="stroke:#181818;stroke-width:1;" x1="527.0479" x2="568.0479" y1="251.2578" y2="251.2578"/><polygon fill="#181818" points="537.0479,247.2578,527.0479,251.2578,537.0479,255.2578,533.0479,251.2578" style="stroke:#181818;stroke-width:1;"/><text fill="#000000" font-family="sans-serif" font-size="13" lengthAdjust="spacing" textLength="134.5767" x="533.0479" y="202.9263">Validate date format</text><text fill="#000000" font-family="sans-serif" font-size="13" lengthAdjust="spacing" textLength="73.0933" x="533.0479" y="218.0591">+ weekday</text><text fill="#000000" font-family="sans-serif" font-size="13" lengthAdjust="spacing" textLength="143.1079" x="533.0479" y="233.1919">+ within next 90 days</text></g><path d="M10,266.2578 L74.4429,266.2578 L74.4429,273.3906 L64.4429,283.3906 L10,283.3906 L10,266.2578" fill="#EEEEEE" style="stroke:#000000;stroke-width:1.5;"/><rect fill="none" height="336.3984" style="stroke:#000000;stroke-width:1.5;" width="830.7646" x="10" y="266.2578"/><text fill="#000000" font-family="sans-serif" font-size="13" font-weight="bold" lengthAdjust="spacing" textLength="19.4429" x="25" y="279.3247">alt</text><text fill="#000000" font-family="sans-serif" font-size="11" font-weight="bold" lengthAdjust="spacing" textLength="107.0244" x="89.4429" y="278.4683">[validation error]</text><g class="message" data-entity-1="part3" data-entity-2="part2" id="msg4"><polygon fill="#181818" points="249.6899,300.5234,239.6899,304.5234,249.6899,308.5234,245.6899,304.5234" style="stroke:#181818;stroke-width:1;"/><line style="stroke:#181818;stroke-width:1;stroke-dasharray:2,2;" x1="243.6899" x2="525.0479" y1="304.5234" y2="304.5234"/><text fill="#000000" font-family="sans-serif" font-size="13" lengthAdjust="spacing" textLength="126.3501" x="255.6899" y="299.4575">422 ValidationError</text></g><g class="message" data-entity-1="part2" data-entity-2="part1" id="msg5"><polygon fill="#181818" points="54.2651,329.6563,44.2651,333.6563,54.2651,337.6563,50.2651,333.6563" style="stroke:#181818;stroke-width:1;"/><line style="stroke:#181818;stroke-width:1;stroke-dasharray:2,2;" x1="48.2651" x2="237.6899" y1="333.6563" y2="333.6563"/><text fill="#000000" font-family="sans-serif" font-size="13" lengthAdjust="spacing" textLength="103.3779" x="60.2651" y="328.5903">Show field error</text></g><line style="stroke:#000000;stroke-width:1;stroke-dasharray:2,2;" x1="10" x2="840.7646" y1="342.6563" y2="342.6563"/><text fill="#000000" font-family="sans-serif" font-size="11" font-weight="bold" lengthAdjust="spacing" textLength="24.9272" x="15" y="352.8667">[ok]</text><g class="message" data-entity-1="part3" data-entity-2="part4" id="msg6"><polygon fill="#181818" points="800.7646,403.8594,810.7646,407.8594,800.7646,411.8594,804.7646,407.8594" style="stroke:#181818;stroke-width:1;"/><line style="stroke:#181818;stroke-width:1;" x1="526.0479" x2="806.7646" y1="407.8594" y2="407.8594"/><text fill="#000000" font-family="sans-serif" font-size="13" lengthAdjust="spacing" textLength="157.6567" x="533.0479" y="372.5278">Query bookings for date</text><text fill="#000000" font-family="sans-serif" font-size="13" lengthAdjust="spacing" textLength="185.2754" x="533.0479" y="387.6606">(status in [active,cancelled];</text><text fill="#000000" font-family="sans-serif" font-size="13" lengthAdjust="spacing" textLength="262.7168" x="533.0479" y="402.7935">usually only active are considered busy)</text></g><g class="message" data-entity-1="part4" data-entity-2="part3" id="msg7"><polygon fill="#181818" points="537.0479,432.9922,527.0479,436.9922,537.0479,440.9922,533.0479,436.9922" style="stroke:#181818;stroke-width:1;"/><line style="stroke:#181818;stroke-width:1;stroke-dasharray:2,2;" x1="531.0479" x2="811.7646" y1="436.9922" y2="436.9922"/><text fill="#000000" font-family="sans-serif" font-size="13" lengthAdjust="spacing" textLength="68.707" x="543.0479" y="431.9263">bookings[]</text></g><g class="message" data-entity-1="part3" data-entity-2="part3" id="msg8"><line style="stroke:#181818;stroke-width:1;" x1="526.0479" x2="568.0479" y1="466.125" y2="466.125"/><line style="stroke:#181818;stroke-width:1;" x1="568.0479" x2="568.0479" y1="466.125" y2="479.125"/><line style="stroke:#181818;stroke-width:1;" x1="527.0479" x2="568.0479" y1="479.125" y2="479.125"/><polygon fill="#181818" points="537.0479,475.125,527.0479,479.125,537.0479,483.125,533.0479,479.125" style="stroke:#181818;stroke-width:1;"/><text fill="#000000" font-family="sans-serif" font-size="13" lengthAdjust="spacing" textLength="254.5601" x="533.0479" y="461.0591">Build slot grid 09:00..17:30 step 30min</text></g><g class="message" data-entity-1="part3" data-entity-2="part3" id="msg9"><line style="stroke:#181818;stroke-width:1;" x1="526.0479" x2="568.0479" y1="523.3906" y2="523.3906"/><line style="stroke:#181818;stroke-width:1;" x1="568.0479" x2="568.0479" y1="523.3906" y2="536.3906"/><line style="stroke:#181818;stroke-width:1;" x1="527.0479" x2="568.0479" y1="536.3906" y2="536.3906"/><polygon fill="#181818" points="537.0479,532.3906,527.0479,536.3906,537.0479,540.3906,533.0479,536.3906" style="stroke:#181818;stroke-width:1;"/><text fill="#000000" font-family="sans-serif" font-size="13" lengthAdjust="spacing" textLength="176.5601" x="533.0479" y="503.1919">Remove busy slots (active)</text><text fill="#000000" font-family="sans-serif" font-size="13" lengthAdjust="spacing" textLength="4.1323" x="533.0479" y="518.3247">&#160;</text></g><g class="message" data-entity-1="part3" data-entity-2="part2" id="msg10"><polygon fill="#181818" points="249.6899,561.5234,239.6899,565.5234,249.6899,569.5234,245.6899,565.5234" style="stroke:#181818;stroke-width:1;"/><line style="stroke:#181818;stroke-width:1;stroke-dasharray:2,2;" x1="243.6899" x2="525.0479" y1="565.5234" y2="565.5234"/><text fill="#000000" font-family="sans-serif" font-size="13" lengthAdjust="spacing" textLength="155.835" x="255.6899" y="560.4575">200 {date, free_slots[]}</text></g><g class="message" data-entity-1="part2" data-entity-2="part1" id="msg11"><polygon fill="#181818" points="54.2651,590.6563,44.2651,594.6563,54.2651,598.6563,50.2651,594.6563" style="stroke:#181818;stroke-width:1;"/><line style="stroke:#181818;stroke-width:1;stroke-dasharray:2,2;" x1="48.2651" x2="237.6899" y1="594.6563" y2="594.6563"/><text fill="#000000" font-family="sans-serif" font-size="13" lengthAdjust="spacing" textLength="111.2554" x="60.2651" y="589.5903">Render free slots</text></g><?plantuml-src PLBTRjCm5BxtKtpgLIFMDNH8Q44CKTAYNKmguqT2ROMSv7Irwjh1ThP528c7u0bv4awSbi78XHETV7_d-0GLD66njK4QemY_Vlp4U_hQa2a9mqLJQ5Kc6TvImCOHmMiRF8eMbGmaX2o3TNYZ5PaWQkc2AbKjJS1Wxgm9PAgZ23vU9WD8Z_diN-3hnMMiyrkmg2oa9mpoQIpcKo5wTOmkc9fnE4rbYFOOVkPdT7KrolD4p6STX5KuxUm3nh9MupfQZsFeLntbvGD32CR-eNoIMaNDU6oisykmCazmHxIhP1i_LTWg0qFt0USf0rilf0wuxQdA6f1prWaWAXy2FvjCZkeCcHqGNLe6zBrnLrjxXuqYNHqqIFCKxEweTS6JoF2k8TUYi7Qdp8tlKiQuApFqGOR6W-Cj-KhKBPsKaczGQwhMBrQcyOtKkeKrVFG0I4SehV6g8aSLYiQt2TlbqnWi3kNej5m_v8W_fetYfDrOSUDKXVGyIzFJqwVFixCKFb2DitIlp2FMDUqj6tTEXpqQzbcIbNaqj4cQublNsqbSkoyHlbn__tzorxnZvFvQJi65tm00?></g></svg>